<?xml version="1.0" standalone="no"?>
<!DOCTYPE svg PUBLIC "-//W3C//DTD SVG 20010904//EN"
 "http://www.w3.org/TR/2001/REC-SVG-20010904/DTD/svg10.dtd">
<svg version="1.0" xmlns="http://www.w3.org/2000/svg"
 width="400.000000pt" height="400.000000pt" viewBox="0 0 400.000000 400.000000"
 preserveAspectRatio="xMidYMid meet">
<metadata>
Created by potrace 1.10, written by Peter Selinger 2001-2011
</metadata>
<g transform="translate(0.000000,400.000000) scale(0.050000,-0.050000)"
fill="#000000" stroke="none">
<path d="M521 7985 c-16 -6 -52 -32 -80 -58 l-51 -47 65 0 c79 0 84 -25 11
-58 -46 -21 -58 -20 -77 7 -13 17 -39 31 -58 31 -31 0 -31 -3 -2 -31 37 -38
10 -107 -45 -112 -19 -2 -45 -4 -59 -5 -13 -1 -39 -23 -56 -47 -17 -25 -45
-45 -61 -45 -16 0 -35 -14 -41 -31 -7 -17 -23 -27 -35 -22 -14 5 -25 -13 -28
-41 l-4 -49 58 42 c32 22 67 41 78 41 12 0 24 7 27 15 10 23 191 145 214 145
11 0 23 7 26 15 7 16 169 118 317 200 50 28 94 54 98 58 14 12 -266 5 -297 -8z
m101 -46 c-49 -41 -85 -44 -85 -8 0 10 21 25 47 32 79 22 88 17 38 -24z"/>
<path d="M1630 7940 c39 -76 71 -76 114 0 l34 60 -89 0 -90 0 31 -60z"/>
<path d="M1884 7976 c-42 -42 -31 -88 13 -49 20 18 46 33 58 33 13 0 28 9 35
20 18 29 -77 25 -106 -4z"/>
<path d="M2310 7941 c-411 -103 -1030 -421 -822 -421 16 0 32 -10 36 -21 9
-28 142 -32 151 -5 23 71 60 94 94 60 45 -45 58 -43 45 6 -12 47 36 80 117 80
36 0 56 13 64 41 6 25 21 37 38 31 15 -6 47 -3 72 7 36 15 38 19 9 20 -55 2
-19 41 38 41 29 0 45 -9 38 -20 -7 -11 1 -20 18 -20 16 0 35 9 42 20 7 11 2
20 -10 20 -12 0 -16 10 -9 22 10 16 18 16 28 0 10 -17 41 -17 120 0 60 13 96
29 83 37 -18 11 -16 21 7 40 17 14 25 34 19 44 -7 11 10 13 41 6 41 -11 49 -7
40 17 -8 21 3 34 34 40 38 7 35 9 -13 10 -33 0 -159 -24 -280 -55z"/>
<path d="M4615 7965 c105 -31 140 -65 66 -65 -44 0 -181 -76 -181 -100 0 -23
94 -10 127 18 15 12 43 17 60 10 36 -13 45 -48 13 -48 -11 0 -20 -10 -20 -22
0 -12 14 -17 31 -10 17 6 26 3 19 -7 -6 -11 7 -28 28 -40 51 -27 76 -27 48 1
-27 27 -10 98 23 98 14 0 42 -19 63 -42 28 -32 53 -39 103 -31 36 6 65 2 65
-8 0 -10 22 -24 49 -31 27 -6 60 -25 73 -40 12 -15 39 -28 58 -28 19 0 47 -14
61 -31 14 -17 37 -26 52 -21 14 6 31 2 38 -9 6 -10 0 -19 -15 -20 -16 0 -12
-8 9 -21 19 -11 44 -15 54 -9 10 6 31 -1 46 -17 16 -16 41 -28 57 -27 58 3 98
-5 96 -20 -6 -38 4 -66 20 -56 21 13 147 -28 164 -53 13 -21 78 1 78 26 0 9
-25 32 -55 51 -30 18 -114 70 -185 115 -199 125 -315 176 -486 211 -63 13
-114 31 -114 41 0 24 122 11 177 -19 26 -13 96 -41 156 -62 60 -21 150 -65
199 -98 50 -34 102 -61 116 -61 14 0 61 -25 104 -55 44 -30 121 -77 173 -104
63 -33 88 -56 74 -70 -13 -13 -33 -12 -59 5 -54 33 -93 30 -108 -8 -17 -44
-16 -48 18 -48 17 0 30 -13 30 -28 0 -34 -114 -78 -131 -51 -6 11 -46 -9 -88
-43 -52 -41 -90 -58 -116 -50 -25 8 -51 -2 -75 -27 -19 -23 -79 -69 -133 -103
-139 -89 -98 -145 50 -68 32 17 74 30 93 30 20 0 41 13 47 29 6 17 41 44 77
61 144 69 216 111 216 127 0 19 89 63 129 63 16 0 55 -25 87 -55 33 -30 96
-82 141 -115 45 -33 82 -71 82 -84 1 -14 21 -35 46 -48 45 -24 45 -24 7 19
-21 24 -30 43 -19 43 34 0 67 -47 67 -96 0 -42 8 -47 52 -39 40 8 55 1 63 -27
5 -21 22 -38 37 -38 16 0 28 -14 28 -31 0 -17 8 -26 18 -20 9 6 23 -9 29 -33
10 -38 15 -39 45 -14 30 25 32 23 20 -17 -12 -35 -8 -42 17 -33 17 7 31 2 31
-10 0 -12 -8 -22 -17 -22 -9 0 -42 -22 -74 -49 -31 -27 -64 -44 -73 -39 -9 6
-16 0 -16 -12 0 -26 -161 -102 -184 -87 -9 5 -16 1 -16 -10 0 -11 -6 -35 -13
-54 -20 -53 125 -20 213 48 153 118 200 140 200 93 0 -16 9 -30 20 -30 11 0
20 -16 20 -35 -1 -28 -4 -29 -18 -7 -15 23 -30 19 -85 -20 -77 -55 -164 -106
-241 -141 -29 -14 -64 -44 -76 -67 -24 -45 -191 -118 -223 -98 -10 6 -30 3
-43 -7 -13 -11 -67 -35 -119 -55 -52 -19 -105 -47 -117 -62 -12 -15 -31 -22
-42 -16 -10 7 -23 -5 -29 -26 -5 -22 -38 -47 -73 -57 -81 -24 -83 -75 -4 -91
63 -14 54 -21 -30 -25 -27 -2 -67 -19 -89 -38 -56 -51 -201 -12 -418 111 -46
25 -123 63 -173 84 -49 21 -139 69 -200 107 -60 38 -137 84 -170 103 -33 18
-100 56 -150 84 -49 28 -138 79 -196 113 -124 74 -127 74 -173 25 -25 -29 -58
-38 -123 -35 -105 4 -108 14 -25 80 l63 49 -88 45 c-48 25 -108 58 -134 75
-55 36 -59 49 111 -330 160 -355 150 -344 300 -359 142 -14 150 -26 63 -88
-71 -51 -64 -64 82 -143 333 -181 557 -308 598 -340 63 -48 107 -46 176 9 31
25 79 58 106 74 28 15 120 72 206 125 87 53 166 96 176 96 11 0 24 14 31 30 6
17 20 30 31 30 10 0 56 26 102 57 46 32 197 125 334 207 138 83 354 219 480
304 127 85 255 159 285 165 63 14 65 23 27 100 -16 32 -40 82 -54 112 -13 30
-40 55 -58 55 -32 0 -98 61 -130 120 -9 17 12 4 47 -29 87 -81 79 -35 -14 82
-46 58 -126 125 -201 167 -132 74 -390 279 -373 296 12 12 437 -258 579 -369
146 -114 427 -695 511 -1058 37 -161 -42 -379 -182 -506 -508 -458 -759 -627
-724 -488 l13 52 -61 -43 c-64 -46 -135 -56 -184 -25 -37 24 -3 67 80 101 32
14 59 33 59 42 0 34 -60 18 -157 -42 -104 -64 -123 -71 -123 -41 0 10 36 39
80 63 44 25 80 53 80 62 0 10 -48 -12 -106 -48 -59 -36 -123 -75 -143 -87 -21
-11 -45 -41 -54 -66 -10 -29 -9 -41 3 -33 32 20 98 -9 121 -52 19 -35 17 -37
-15 -21 -157 82 -209 92 -243 49 -31 -38 -62 -50 -208 -79 -76 -16 -29 78 59
116 27 12 437 288 511 344 38 29 77 53 87 53 10 0 43 23 72 50 30 28 60 50 68
50 61 0 230 109 201 130 -26 20 -19 29 53 60 46 20 105 53 132 73 46 36 122
51 122 24 0 -7 -16 -24 -35 -38 -62 -45 -16 -49 96 -9 130 48 139 49 139 10 0
-16 -10 -30 -22 -30 -12 0 -49 -22 -82 -50 -32 -27 -72 -50 -89 -50 -16 0 -25
-8 -19 -17 13 -21 -83 -115 -100 -98 -7 7 -32 -6 -55 -28 -24 -23 -89 -62
-145 -87 -57 -25 -110 -56 -118 -70 -11 -18 -5 -19 23 -4 20 10 80 39 132 62
52 24 115 52 140 63 25 12 90 48 145 80 55 33 116 65 135 72 19 6 35 21 35 32
0 29 141 182 184 199 73 29 37 58 -59 47 -52 -6 -221 -15 -375 -21 -154 -5
-334 -23 -400 -39 -66 -16 -207 -30 -312 -30 -179 -1 -198 -5 -264 -56 -39
-30 -117 -82 -172 -115 -56 -33 -101 -72 -102 -86 0 -15 -9 -21 -20 -14 -21
13 -229 -97 -251 -131 -39 -63 27 -49 104 22 104 96 145 90 51 -7 -79 -81 -79
-88 -4 -104 33 -7 60 -22 60 -33 0 -29 77 -1 172 63 52 35 93 49 111 39 18
-10 42 1 70 32 23 26 33 50 22 54 -21 7 12 79 62 133 25 26 31 25 55 -8 40
-55 34 -108 -17 -151 -25 -21 -34 -38 -20 -38 49 -2 24 -33 -88 -112 -63 -43
-133 -99 -158 -124 -24 -25 -50 -45 -59 -45 -8 0 -56 -30 -107 -67 -51 -37
-115 -73 -143 -79 -27 -6 -86 -21 -130 -32 -102 -27 -210 -28 -210 -2 0 11 10
18 22 15 13 -3 27 7 32 21 7 19 -4 22 -42 13 -40 -10 -52 -6 -52 19 0 18 -9
32 -20 32 -11 0 -20 15 -20 32 0 27 -5 28 -30 8 -19 -16 -30 -17 -30 -4 0 12
9 27 20 34 25 15 26 50 2 50 -10 0 -68 -28 -128 -63 -107 -61 -133 -117 -57
-117 28 -1 28 -3 4 -19 -36 -23 -106 82 -97 146 7 47 167 165 330 243 134 65
139 76 50 118 -41 19 -159 83 -264 141 -305 170 -381 211 -391 211 -22 0 -6
-38 36 -83 25 -27 65 -89 90 -138 24 -49 45 -78 45 -64 0 14 13 25 29 25 16 0
37 15 48 33 15 28 24 20 55 -45 65 -140 110 -188 161 -175 35 8 47 3 47 -22 0
-25 -11 -30 -40 -21 -28 9 -40 4 -40 -19 0 -17 -11 -32 -25 -33 -190 -17 -218
-10 -170 40 20 22 17 24 -18 13 -37 -11 -42 -6 -33 28 11 42 -22 58 -41 20 -5
-11 -8 -9 -5 5 3 15 25 29 49 32 45 7 14 64 -36 64 -11 0 -21 10 -21 22 0 12
-13 17 -29 11 -19 -7 -25 -1 -18 16 5 16 -9 47 -31 69 -62 62 -55 37 98 -314
137 -316 169 -415 109 -334 -17 22 -41 40 -53 40 -13 0 -27 13 -32 28 -6 17 0
22 13 14 30 -18 29 -10 -5 60 -16 32 -48 103 -71 158 -146 337 -228 488 -269
494 -29 4 -40 18 -36 46 4 30 1 33 -13 13 -14 -21 -30 -11 -70 42 -65 84 -67
114 -8 103 44 -9 44 -9 3 10 -23 10 -48 33 -55 50 -17 46 -53 39 -53 -9 0 -51
-31 -114 -87 -176 l-43 -47 57 -45 57 -45 -85 -14 c-96 -15 -122 -3 -71 34 33
24 37 98 9 144 -7 11 -23 58 -36 105 -12 46 -43 108 -67 137 l-45 52 -50 -42
-49 -41 62 0 c52 -1 67 -13 94 -76 49 -114 66 -232 32 -221 -16 5 -31 31 -34
58 -17 147 -58 205 -134 186 -76 -19 -90 67 -21 126 97 84 192 23 258 -165 35
-103 66 -108 92 -15 34 125 58 101 -279 281 -93 50 -179 97 -190 105 -18 14
-146 83 -492 265 -72 38 -155 85 -185 105 -31 20 -53 26 -53 12 0 -12 -10 -22
-22 -22 -12 0 -17 14 -11 30 7 17 3 30 -8 30 -11 0 -57 27 -103 61 -46 33 -94
56 -106 52 -13 -5 -34 9 -48 31 -20 32 -38 38 -89 28 -40 -8 -53 -5 -35 6 19
12 -5 24 -80 41 -59 12 -130 28 -157 35 -50 13 -50 12 9 -48 33 -34 67 -57 75
-53 8 5 15 1 15 -9 0 -11 36 -20 80 -20 109 -2 165 -22 153 -54 -10 -27 43
-61 63 -40 6 5 0 10 -14 10 -13 0 -18 10 -11 22 9 14 20 15 34 1 11 -11 31
-16 44 -11 13 5 40 -9 60 -31 21 -23 49 -41 63 -41 17 0 22 -13 14 -33 -10
-27 -3 -31 44 -22 58 11 210 -52 210 -87 0 -10 17 -18 38 -18 21 0 43 -14 49
-30 10 -26 4 -27 -55 -2 -63 26 -67 26 -57 -10 7 -27 -1 -38 -26 -38 -33 0
-33 -2 -5 -25 33 -26 73 -128 43 -110 -9 6 -30 -3 -45 -19 -24 -27 -22 -29 15
-17 43 14 61 -16 23 -39 -33 -21 -22 -88 20 -125 53 -45 50 -65 -9 -65 -38 0
-47 -8 -37 -33 10 -26 5 -31 -21 -21 -31 12 -45 -17 -35 -72 2 -10 -6 -11 -18
-4 -11 7 -20 3 -20 -9 0 -11 -13 -21 -28 -21 -15 0 -33 -15 -40 -33 -10 -26
-7 -28 14 -10 15 12 34 17 41 9 19 -19 113 36 113 66 0 45 33 48 78 5 61 -57
80 -29 22 33 -58 62 -54 66 77 72 58 3 110 13 115 22 6 9 37 16 68 16 38 0 66
14 80 40 12 22 31 40 43 40 14 0 13 -10 -3 -30 -37 -44 8 -37 49 8 51 58 -22
91 -202 91 -154 1 -193 25 -249 157 -30 70 -15 86 45 47 26 -17 119 -59 207
-94 88 -35 193 -81 233 -101 55 -28 76 -31 83 -13 5 14 15 19 22 12 8 -7 -13
-42 -45 -77 -73 -80 -87 -127 -51 -174 22 -30 30 -31 45 -8 34 51 71 -51 43
-118 -30 -72 20 -160 90 -160 60 0 98 -97 68 -174 -11 -29 -14 -66 -8 -83 14
-36 -103 -163 -151 -163 -19 0 -56 43 -87 100 -72 131 -108 130 -41 -2 50 -99
54 -136 10 -109 -99 62 -139 278 -60 325 81 48 66 104 -62 235 -69 69 -92 106
-77 120 20 20 55 -11 128 -116 21 -30 34 -32 68 -14 53 29 54 84 1 117 -26 16
-39 42 -35 69 9 66 -50 66 -122 0 -34 -31 -95 -69 -135 -83 -74 -27 -207 -143
-207 -181 0 -13 -36 -16 -95 -8 -89 11 -93 10 -55 -20 22 -17 59 -32 82 -32
48 -1 108 -59 108 -106 0 -18 18 -38 41 -45 51 -17 40 -58 -17 -66 -35 -5 -41
1 -30 30 12 32 9 33 -20 9 -26 -21 -41 -22 -61 -5 -15 12 -58 25 -95 30 -37 4
-73 9 -80 10 -7 1 -35 23 -63 49 -41 38 -69 46 -133 41 -44 -4 -86 2 -92 13
-7 10 -3 19 10 19 15 0 15 11 -1 41 -15 28 -33 37 -60 29 -22 -7 -39 -3 -39 8
0 12 -22 27 -49 33 -26 7 -54 27 -61 45 -10 27 -15 28 -30 5 -13 -21 -26 -8
-52 53 -26 60 -44 78 -72 71 -20 -5 -36 0 -36 12 0 12 -13 17 -28 11 -20 -8
-32 12 -42 71 -7 45 -22 76 -32 70 -16 -10 -26 23 -23 86 0 16 -17 21 -52 13
-38 -8 -45 -6 -25 8 22 16 19 24 -15 43 -24 12 -43 38 -43 57 -1 29 -4 29 -19
5 -15 -24 -22 -20 -37 20 -38 103 -43 106 -31 19 14 -107 20 -120 58 -120 16
0 29 -8 29 -17 0 -10 -22 -13 -50 -8 -29 6 -50 0 -50 -13 0 -12 13 -22 30 -22
111 0 230 -106 230 -206 0 -57 -155 -9 -180 56 -28 71 -51 88 -64 47 -5 -15
-28 -12 -72 11 -35 18 -64 25 -64 14 0 -10 -6 -35 -14 -55 -11 -32 -9 -33 18
-11 27 22 33 16 45 -45 14 -77 58 -100 48 -26 -3 25 3 50 14 55 11 6 25 -52
32 -137 10 -109 24 -158 55 -191 53 -57 54 -91 1 -78 -40 11 -99 100 -99 150
0 64 -72 195 -110 200 -81 12 -46 356 36 356 65 0 75 -48 19 -92 -74 -60 -44
-84 35 -28 47 33 56 50 40 70 -17 21 -63 160 -109 330 -22 83 -76 213 -112
271 -59 97 -96 239 -107 417 l-10 158 40 -43 c22 -24 52 -43 67 -43 15 0 32
-13 38 -30 12 -31 53 -42 53 -14 0 26 -110 132 -169 164 -52 27 -106 0 -81
-40 4 -7 17 -98 27 -201 18 -174 125 -477 262 -740 48 -92 44 -154 -10 -168
-142 -35 -166 -282 -41 -412 l78 -80 -22 -209 c-13 -115 -18 -222 -12 -238 6
-16 2 -47 -10 -68 -16 -31 -15 -43 8 -51 25 -10 30 20 30 188 0 109 8 199 17
199 21 0 43 -194 43 -378 1 -195 25 -268 148 -454 62 -92 112 -176 112 -185 0
-10 13 -29 29 -42 16 -14 72 -98 125 -188 177 -302 223 -365 239 -323 13 36
15 36 29 -1 12 -34 17 -31 38 26 25 68 60 70 60 4 0 -22 -12 -39 -28 -39 -15
0 -32 -18 -38 -40 -33 -126 -95 -56 -433 490 -226 363 -214 349 -252 294 -17
-24 -48 -44 -69 -44 -21 0 -44 -10 -51 -21 -7 -12 -23 -18 -36 -13 -13 5 -36
-4 -51 -21 -24 -26 -22 -28 15 -16 24 8 43 5 43 -5 0 -18 -172 -74 -205 -67
-8 2 -15 -5 -15 -14 0 -33 125 -45 158 -16 52 44 256 120 289 107 54 -21 142
-214 98 -216 -416 -23 -1067 -266 -1359 -505 -108 -88 -149 -141 -96 -120 17
6 30 19 30 29 0 10 9 18 20 18 11 0 66 32 122 71 339 238 845 436 1183 461
182 14 253 -16 90 -38 -47 -7 -130 -31 -185 -55 -237 -103 -520 -244 -577
-288 -35 -25 -108 -69 -163 -97 -122 -62 -369 -258 -410 -325 -16 -27 -45 -49
-63 -49 -19 0 -53 -26 -76 -58 -43 -61 -55 -113 -21 -92 12 7 15 23 7 34 -7
13 -4 16 8 9 11 -7 100 64 197 157 97 94 185 170 197 171 12 0 52 27 90 59
111 96 98 48 -22 -76 -185 -192 -337 -377 -337 -410 0 -18 -22 -55 -50 -82
-28 -28 -50 -73 -50 -103 0 -70 44 -54 71 26 11 34 36 79 55 100 18 21 34 47
34 59 0 11 27 51 60 88 33 38 60 75 60 84 3 175 1215 956 1291 832 6 -9 -68
-55 -165 -101 -181 -85 -525 -280 -570 -323 -15 -13 -69 -59 -122 -101 -53
-43 -92 -82 -86 -88 6 -5 67 35 136 89 349 276 876 531 876 424 0 -9 -13 -12
-30 -5 -20 7 -30 -1 -30 -23 0 -27 -6 -30 -26 -13 -20 16 -37 15 -65 -4 -22
-14 -93 -47 -159 -73 -134 -51 -257 -120 -243 -134 5 -5 31 4 56 20 26 16 92
45 147 64 55 19 127 47 160 61 92 39 219 59 202 32 -8 -13 -27 -23 -43 -23
-16 0 -29 -9 -29 -20 0 -12 19 -12 52 1 54 20 119 -7 98 -42 -6 -8 1 -20 15
-26 24 -9 -153 -193 -186 -193 -9 0 -30 -5 -47 -12 -25 -9 -32 1 -32 45 -1 44
-5 50 -20 27 -10 -16 -14 -48 -7 -70 11 -36 7 -35 -41 8 -43 40 -52 43 -52 15
0 -18 -16 -33 -36 -33 -20 0 -47 -11 -60 -24 -20 -20 -34 -20 -65 0 -35 22
-50 19 -100 -20 -167 -128 -289 -243 -401 -378 -68 -81 -169 -198 -226 -258
-195 -210 -252 -285 -252 -333 0 -31 -17 -56 -49 -70 -28 -13 -44 -33 -37 -45
7 -12 5 -15 -4 -7 -36 33 -129 -86 -109 -139 11 -27 13 -72 6 -100 -8 -32 -3
-56 13 -66 32 -20 -7 -131 -52 -148 -33 -13 -35 -2 -7 49 11 22 12 39 2 39
-10 0 -24 -20 -30 -45 -18 -65 -16 -99 5 -86 10 6 23 -3 30 -20 17 -45 45 -20
59 51 12 62 53 84 53 28 0 -17 11 -28 24 -23 37 12 41 47 9 79 -30 30 -24 126
11 170 11 13 13 43 6 67 -10 31 1 58 42 101 30 32 50 58 43 58 -7 0 -4 27 8
60 12 33 29 60 39 60 10 0 18 13 18 28 0 16 26 50 57 77 32 26 92 97 133 157
112 162 370 403 370 346 0 -19 -46 -97 -74 -125 -15 -15 -78 -105 -141 -200
-62 -95 -134 -200 -161 -234 -26 -33 -73 -137 -105 -230 -60 -179 -137 -369
-169 -419 -10 -16 -17 -45 -13 -64 3 -18 -13 -43 -36 -55 -23 -13 -41 -36 -41
-52 0 -38 -58 -37 -137 2 -76 38 -283 63 -283 35 0 -11 50 -26 112 -32 110
-11 242 -73 192 -89 -14 -5 -38 2 -53 14 -46 38 -251 53 -251 18 0 -21 21 -26
78 -21 48 5 83 -2 93 -18 11 -17 6 -21 -17 -12 -18 7 -38 4 -45 -7 -6 -10 6
-19 28 -19 24 0 38 -13 36 -35 -2 -27 10 -34 52 -29 44 4 55 -3 55 -35 0 -23
-11 -41 -24 -41 -19 0 -19 -5 0 -24 34 -34 32 -88 -2 -60 -19 16 -30 5 -47
-48 -12 -38 -14 -74 -4 -80 9 -6 17 3 17 20 0 16 9 35 20 42 60 37 4 -50 -105
-164 -113 -118 -125 -138 -126 -216 0 -72 4 -80 25 -53 19 26 25 27 25 5 1
-16 7 -23 14 -16 7 7 0 28 -15 47 -24 30 -24 32 2 17 87 -51 475 -311 505
-338 41 -37 278 -92 369 -86 83 6 110 34 34 35 -48 2 -40 7 42 32 55 17 109
39 119 49 36 34 74 19 67 -27 -5 -36 -21 -46 -81 -51 -41 -4 -75 -14 -75 -24
0 -33 169 -30 270 4 113 38 125 28 129 -94 2 -79 34 -131 58 -93 13 19 28 7
60 -47 48 -80 53 -98 23 -80 -30 19 -24 -9 10 -43 16 -16 31 -58 32 -93 4 -95
5 -100 45 -159 33 -49 92 -83 64 -36 -6 10 -2 24 9 31 11 7 15 22 8 34 -9 13
-18 12 -29 -5 -8 -14 -14 9 -12 53 2 56 13 79 38 84 25 5 31 -2 23 -25 -8 -20
-1 -31 18 -31 16 0 35 -14 42 -32 19 -49 15 -55 -18 -28 -36 30 -40 -2 -5 -37
20 -20 18 -23 -10 -12 -19 7 -35 4 -35 -7 0 -12 -5 -34 -11 -50 -7 -18 10 -37
50 -53 77 -32 129 -15 106 34 -10 19 -17 53 -16 75 0 22 -4 45 -11 50 -21 18
-37 140 -19 140 44 0 124 -98 112 -137 -7 -22 -4 -45 7 -52 11 -7 12 -35 2
-71 -13 -47 -11 -60 11 -60 19 0 30 23 31 65 2 36 4 116 6 179 4 122 19 157
55 121 12 -12 32 -18 45 -13 32 12 37 -77 12 -211 -13 -73 -13 -116 0 -129 13
-13 20 -13 20 2 0 17 16 17 59 0 132 -49 342 146 257 239 -60 66 -39 110 73
151 121 43 122 42 60 -49 -76 -113 -58 -123 44 -23 96 93 163 115 86 28 -24
-28 -83 -101 -131 -163 -48 -62 -112 -132 -143 -155 -52 -39 -53 -41 -11 -41
24 -1 49 8 56 19 7 11 21 20 32 20 11 0 15 -9 8 -20 -7 -11 1 -20 16 -20 16 0
34 25 40 55 6 31 56 118 112 195 55 77 115 160 132 185 45 64 58 57 89 -50 23
-80 75 -160 235 -359 13 -17 33 -27 44 -23 11 4 -31 75 -95 157 -157 206 -264
493 -160 428 16 -10 20 -4 11 20 -8 19 1 67 20 108 l33 74 26 -200 c15 -110
30 -228 34 -263 4 -34 38 -100 75 -147 37 -46 87 -108 111 -137 77 -94 70 -33
-14 119 -114 206 -172 430 -106 404 38 -15 36 -4 -35 186 -48 127 -31 311 26
276 15 -10 15 -3 1 23 -21 36 31 206 108 354 29 57 32 58 64 25 24 -26 27 -37
8 -44 -14 -5 -25 -18 -25 -29 0 -11 9 -14 20 -7 11 7 20 -2 20 -19 0 -18 -16
-37 -35 -44 -91 -29 -95 -32 -70 -41 14 -5 55 10 93 33 37 23 82 36 100 29 17
-7 32 -2 32 10 0 31 26 27 71 -9 22 -18 28 -27 15 -20 -13 6 -46 -9 -74 -35
-28 -26 -84 -58 -126 -72 -121 -40 -184 -99 -141 -131 49 -36 45 -78 -6 -65
-31 8 -40 2 -35 -23 4 -19 25 -32 51 -31 35 1 39 -5 22 -25 -17 -21 -14 -27
13 -27 26 0 32 11 22 48 -10 42 -3 49 58 61 59 11 67 18 52 48 -18 34 -2 88
25 85 38 -5 53 0 53 18 0 11 -20 21 -45 21 -43 2 -43 3 -5 18 22 9 56 8 75 -2
20 -11 45 -13 55 -7 11 7 20 -1 20 -17 0 -48 130 -67 300 -45 28 4 67 8 87 9
22 2 33 14 27 29 -7 19 6 24 48 18 34 -5 79 5 109 25 27 18 59 27 70 21 10 -7
25 1 31 19 7 17 21 26 31 19 11 -7 10 -23 -4 -40 -57 -68 10 -20 85 62 46 49
101 90 123 90 22 0 34 6 26 13 -7 8 2 30 20 50 18 21 28 43 21 50 -12 12 69
87 94 87 7 0 12 -16 12 -36 0 -50 -59 -127 -85 -111 -14 9 -17 2 -9 -19 47
-124 -167 -290 -410 -317 -207 -23 -247 -54 -330 -260 -35 -89 -73 -171 -83
-184 -10 -13 -25 -45 -33 -73 -9 -27 -47 -117 -85 -200 -69 -149 -145 -333
-145 -351 0 -73 76 52 178 296 289 688 306 710 527 723 109 6 154 19 230 69
51 33 96 59 99 56 17 -17 -25 -92 -65 -113 -26 -14 -53 -52 -60 -84 -12 -56
-14 -57 -51 -24 -34 30 -38 31 -38 2 0 -17 8 -36 17 -42 10 -6 24 -86 32 -177
19 -222 33 -316 53 -371 28 -74 20 -79 -20 -14 -26 42 -45 133 -62 299 -27
270 -33 280 -186 302 -117 16 -144 -4 -230 -167 -59 -113 -247 -553 -273 -639
-23 -75 5 -51 46 40 21 47 67 148 103 225 35 77 80 182 101 233 68 172 160
277 229 265 141 -25 138 -19 162 -337 17 -240 174 -551 278 -551 85 0 86 -14
-6 152 -71 130 -144 382 -144 498 0 73 162 -95 229 -237 28 -59 69 -123 91
-143 22 -20 40 -60 40 -90 0 -94 40 -180 84 -180 31 0 37 8 26 35 -44 108 -38
116 37 50 118 -104 158 -85 47 22 -127 124 -197 383 -103 383 29 0 41 -20 53
-86 20 -118 104 -296 151 -321 73 -40 215 -82 265 -80 46 2 45 3 -10 17 -33 8
-48 16 -34 18 26 2 27 81 2 102 -19 17 -121 243 -161 360 -35 101 -37 103 -27
30 10 -75 9 -77 -20 -41 -23 29 -36 33 -53 16 -32 -32 18 -91 67 -78 24 6 36
-2 36 -24 0 -19 14 -54 31 -79 49 -69 2 -52 -86 32 -45 41 -91 72 -103 68 -12
-4 -22 7 -22 25 0 18 -14 38 -31 44 -17 7 -52 54 -78 104 l-47 93 6 -105 c5
-109 -14 -151 -42 -90 -17 38 -21 61 -25 159 -2 49 -10 62 -33 53 -22 -8 -27
-2 -18 21 9 24 4 29 -20 20 -24 -9 -29 -4 -20 20 17 46 42 40 102 -23 l52 -55
-12 50 c-30 124 -38 220 -19 220 11 0 26 -38 33 -85 7 -47 27 -127 44 -178 48
-148 185 -271 157 -142 -11 52 -10 53 19 16 39 -47 63 -29 34 26 -12 22 -22
50 -22 62 0 34 36 24 44 -13 3 -18 6 53 6 159 0 191 15 250 51 194 16 -25 19
-25 21 1 1 17 5 59 8 94 7 86 26 131 48 117 10 -6 14 5 9 25 -5 20 4 49 22 63
17 14 31 34 31 45 0 27 146 232 174 244 32 13 -12 -91 -49 -114 -43 -28 -29
-57 17 -33 59 31 72 7 32 -60 -19 -31 -34 -77 -34 -100 0 -24 -11 -63 -23 -87
-13 -24 -31 -147 -39 -274 -8 -126 -21 -252 -29 -280 -10 -35 -8 -44 7 -30 11
11 29 52 40 90 l19 70 24 -59 c31 -80 15 -133 -60 -188 -69 -52 -101 -42 -63
18 19 31 19 38 -1 34 -14 -3 -26 9 -26 25 -1 17 -8 66 -15 110 -7 44 -16 142
-18 217 -3 75 -12 141 -21 146 -14 9 -19 -34 -21 -188 -2 -92 30 -285 48 -296
10 -6 18 -32 18 -56 0 -25 8 -54 18 -64 9 -10 45 -109 79 -219 76 -243 85
-258 142 -240 34 11 38 19 20 42 -20 23 -15 28 24 28 27 0 61 -18 77 -40 40
-55 312 -61 291 -7 -7 19 -21 74 -33 124 -11 50 -37 103 -59 118 -21 15 -39
43 -39 61 0 19 -23 78 -50 132 -57 114 -63 156 -20 139 17 -6 50 -56 73 -110
46 -106 83 -117 94 -28 4 39 -10 72 -48 112 -57 60 -50 108 13 88 29 -9 38 -2
38 31 0 71 125 192 144 140 8 -23 31 -47 51 -54 19 -7 61 -38 94 -69 106 -103
215 -60 163 64 -23 55 -29 60 -37 28 -9 -38 -9 -38 -25 1 -37 92 -155 171
-201 135 -11 -8 3 9 31 37 27 29 66 50 85 47 40 -8 44 16 13 74 -38 72 -7 62
345 -120 191 -98 426 -212 522 -253 213 -91 207 -82 154 -228 -23 -64 -53
-170 -66 -233 -22 -109 -72 -175 -74 -96 0 21 -22 -6 -50 -59 -62 -122 -65
-114 40 -114 67 0 97 11 125 45 42 53 57 64 386 283 138 91 297 188 354 214
l104 48 1 134 c1 73 -7 139 -17 145 -31 19 -37 159 -10 214 21 42 22 68 5 118
-23 64 -13 575 16 884 13 137 -2 164 -59 114 -85 -76 -762 -426 -926 -479 -43
-14 -129 -51 -192 -83 -63 -31 -125 -57 -137 -57 -11 0 -66 -44 -121 -98 -55
-54 -151 -123 -214 -154 -191 -93 -274 -166 -342 -304 -108 -217 -328 -417
-397 -360 -95 79 51 -404 169 -560 63 -84 45 -103 -48 -53 -194 104 -283 260
-297 519 -4 66 -22 161 -40 210 -42 114 -27 345 28 420 20 28 42 94 50 148 14
107 58 188 188 347 54 66 75 105 56 105 -16 0 -71 -61 -123 -135 -121 -172
-135 -188 -109 -118 58 155 262 373 347 373 27 0 13 -56 -16 -67 -41 -16 -38
-39 11 -69 35 -22 46 -18 89 31 56 63 62 85 22 85 -66 0 -51 88 34 195 237
300 338 489 402 752 19 80 35 102 86 123 l62 26 9 -83 c11 -101 -16 -455 -47
-633 -28 -159 -162 -448 -292 -629 -53 -74 -109 -154 -126 -179 -70 -105 -289
-333 -312 -324 -33 13 -78 -41 -127 -150 -45 -102 -72 -298 -41 -298 11 0 20
17 20 38 0 151 71 271 287 484 117 116 219 206 227 199 7 -6 7 -1 0 11 -16 28
54 113 76 93 9 -8 11 -5 4 7 -7 11 12 52 42 90 30 38 67 91 82 118 16 28 54
92 84 143 30 52 51 98 45 103 -5 5 4 41 20 79 71 171 94 353 92 722 -3 484 0
547 24 653 74 321 48 772 -57 995 -19 40 -24 75 -13 90 10 14 13 70 6 125 -11
96 -12 98 -34 46 -20 -47 -79 -96 -115 -96 -7 0 -10 24 -6 54 7 61 133 163
156 126 7 -11 28 13 47 53 41 85 49 79 118 -86 29 -68 97 -179 153 -248 123
-153 229 -354 262 -498 14 -60 50 -159 80 -220 31 -63 60 -163 66 -231 7 -66
33 -201 57 -300 54 -215 67 -733 21 -842 -46 -109 -370 -328 -486 -328 -32 0
-115 -310 -89 -335 6 -7 11 3 11 22 0 18 8 33 18 33 33 0 -3 -85 -40 -95 -33
-8 -68 -62 -51 -79 22 -22 153 65 154 103 2 34 4 35 15 8 17 -41 230 37 289
106 22 26 47 37 68 28 46 -17 242 88 255 136 7 28 22 35 52 27 54 -14 239 80
242 124 1 18 1 50 0 72 -2 28 28 58 99 100 56 33 112 71 123 85 32 38 3 55
-37 23 -19 -16 -28 -17 -21 -4 8 13 6 29 -6 36 -11 7 -20 -4 -20 -24 -1 -31
-4 -31 -20 -6 -18 27 -22 27 -40 0 -17 -26 -19 -25 -20 5 0 19 10 35 22 35 12
0 17 13 11 29 -14 37 25 67 83 62 37 -4 45 4 37 32 -5 20 -1 37 9 37 10 0 18
45 18 101 l0 100 -59 -30 c-81 -42 -248 -155 -264 -178 -7 -10 -48 -32 -90
-48 -162 -60 -209 -56 -126 12 44 36 104 233 97 320 -8 100 2 143 32 143 17 0
30 12 30 28 0 15 -13 38 -30 52 -38 32 -39 62 -1 48 17 -7 57 15 95 51 36 35
100 81 141 103 41 21 75 48 75 58 0 29 -9 26 -113 -40 -52 -33 -108 -60 -124
-60 -17 0 -44 -13 -61 -28 -56 -50 -151 -65 -122 -20 30 47 230 191 300 216
27 10 64 35 82 55 18 20 37 31 44 25 61 -62 94 19 93 228 0 229 -25 243 -46
27 -13 -129 -68 -211 -126 -189 -13 5 -43 -1 -66 -13 -33 -18 -44 -17 -53 8
-17 44 -108 41 -108 -4 1 -30 3 -31 20 -5 18 27 22 27 40 0 26 -40 25 -60 -3
-60 -42 0 -157 -101 -157 -139 0 -93 -80 -60 -84 36 -7 163 0 252 21 259 52
17 69 145 25 186 -23 22 -42 61 -42 87 0 26 -5 61 -11 77 -18 47 261 241 325
225 41 -10 45 -18 25 -42 -32 -39 -54 -37 -65 6 -8 30 -10 29 -12 -5 -1 -22
-28 -54 -58 -72 -77 -44 -69 -169 13 -201 89 -35 140 -33 176 6 18 20 26 37
17 37 -9 0 3 17 27 37 24 21 43 60 43 88 0 32 19 63 50 83 53 35 69 112 22
112 -15 0 -38 -14 -52 -30 -20 -24 -32 -25 -53 -7 -24 19 -17 29 35 54 35 17
54 34 42 38 -12 4 -41 -3 -65 -15 -23 -13 -47 -18 -54 -12 -19 19 83 91 130
91 38 1 45 12 45 74 l0 74 -45 -41 c-25 -22 -60 -45 -79 -52 -19 -7 -57 -49
-86 -94 -28 -45 -60 -76 -72 -69 -11 7 -49 -10 -84 -36 -35 -27 -100 -69 -144
-93 -44 -24 -125 -75 -180 -113 -111 -77 -190 -90 -190 -33 0 44 62 100 170
154 247 123 636 412 618 458 -6 15 -2 33 9 40 10 6 24 -2 31 -19 32 -85 49 22
51 327 2 334 -20 464 -80 464 -11 0 -19 12 -19 26 0 58 -110 158 -180 164 -94
7 -102 0 -67 -70 17 -33 38 -55 49 -49 10 6 18 2 18 -10 0 -12 23 -41 50 -65
28 -24 42 -49 33 -55 -10 -6 -25 -33 -33 -61 -14 -43 -12 -46 14 -25 24 20 37
17 66 -15 20 -22 48 -40 63 -40 43 0 32 -37 -53 -185 -78 -134 -133 -283 -80
-215 19 24 21 18 10 -30 -15 -69 -45 -110 -79 -110 -13 0 -37 -27 -52 -59 -39
-79 -285 -332 -295 -302 -6 17 -15 17 -36 -1 -34 -28 -37 -3 -8 72 24 62 -7
51 -67 -25 -26 -32 -44 -41 -61 -27 -13 11 -53 15 -89 9 -49 -7 -74 0 -94 27
-33 42 -38 74 -9 56 11 -7 20 -3 20 9 0 11 -23 21 -51 21 -30 0 -46 9 -39 20
7 12 21 16 30 10 9 -6 24 0 32 12 10 17 -7 20 -64 9 l-77 -15 39 44 c29 32 54
40 94 32 30 -6 60 -2 67 10 17 28 59 11 59 -24 0 -39 51 -35 77 6 16 25 16 51
0 94 -14 37 -15 66 -3 78 30 30 28 284 -3 303 -14 9 -19 27 -11 41 12 19 18
19 31 -1 20 -32 47 141 34 212 -9 49 24 172 69 257 59 110 3 339 -191 791 -91
211 -97 248 -36 237 48 -8 196 85 322 202 133 125 134 125 71 7 -48 -92 -63
-145 -38 -145 24 0 260 140 302 179 25 23 52 41 62 41 9 0 59 28 111 62 102
68 133 158 53 158 -22 0 -40 -8 -40 -18 0 -27 -97 -84 -109 -64 -6 10 34 52
89 92 94 69 100 79 100 162 0 99 -10 106 -61 47 -20 -23 -49 -39 -66 -35 -27
5 -237 -210 -312 -320 -15 -23 -36 -37 -45 -32 -32 20 -15 91 35 144 28 30
101 123 161 208 81 114 126 159 177 176 139 45 147 151 16 205 -54 22 -63 32
-33 33 24 1 51 23 65 53 29 64 29 70 -2 64 -14 -3 -24 12 -22 32 3 32 -6 35
-70 22 -40 -8 -97 -17 -127 -20 -29 -3 -62 -10 -73 -17 -31 -19 -84 10 -78 43
3 17 -5 34 -16 38 -32 11 -64 -197 -91 -593 -24 -355 -42 -420 -113 -420 -56
0 -326 -208 -317 -245 20 -82 -63 3 -116 119 -37 82 -247 231 -742 527 -132
79 -267 163 -300 187 -146 107 -428 272 -465 272 -22 0 -79 14 -127 32 -142
52 -275 87 -488 129 -233 46 -326 48 -175 4z m3072 -463 c-37 -44 -87 -56 -87
-23 0 20 104 83 116 71 4 -3 -9 -25 -29 -48z m-3327 -1295 c0 -25 -87 -87
-123 -87 -43 0 -47 13 -12 48 41 41 135 68 135 39z m196 -197 c37 -54 154 -89
167 -51 4 12 28 7 57 -9 28 -16 66 -35 85 -42 19 -7 35 -21 35 -30 0 -10 17
-18 38 -18 21 0 42 -12 48 -27 6 -15 56 -44 112 -64 56 -20 102 -45 102 -55 0
-10 19 -14 43 -7 24 6 71 -4 105 -22 34 -18 70 -34 80 -34 33 -2 36 -51 4 -51
-18 0 -56 -27 -85 -60 -40 -45 -58 -54 -70 -35 -13 19 -17 18 -17 -5 -1 -53
-79 -140 -80 -88 0 23 6 47 13 55 24 23 19 141 -7 193 -15 28 -26 37 -26 19 0
-16 -16 -45 -35 -64 -70 -68 -134 -142 -101 -117 42 31 116 -3 116 -54 -1 -29
-3 -30 -20 -4 -17 25 -22 23 -32 -13 -13 -49 -127 -49 -185 -1 -16 13 -47 21
-68 17 -22 -3 -34 2 -27 13 16 27 -41 71 -76 57 -47 -17 -49 33 -4 70 34 27
37 39 17 60 -20 20 -25 18 -25 -10 0 -46 -73 -28 -131 34 -23 23 -54 46 -70
50 -49 11 -61 52 -17 60 44 7 -123 182 -176 184 -21 0 -126 93 -126 110 0 7
63 7 140 -1 111 -11 140 -8 141 13 0 24 26 0 75 -73z m-1546 18 c55 -5 131
-15 168 -21 l68 -10 -78 -48 c-99 -60 -328 -33 -328 40 0 4 -6 23 -13 43 -12
29 -6 32 35 21 26 -8 93 -19 148 -25z m-1046 -318 c36 -14 67 -116 46 -150 -9
-14 -46 -17 -100 -9 l-87 13 18 -67 c45 -173 93 -266 102 -197 1 11 3 28 5 38
7 53 41 42 113 -36 82 -91 107 -172 46 -148 -24 9 -29 5 -18 -12 8 -14 28 -20
44 -14 26 10 63 -39 44 -58 -7 -7 -101 30 -180 71 -32 16 -57 7 -57 -23 0 -29
127 -78 203 -78 59 0 83 -11 109 -50 18 -27 50 -50 70 -50 21 0 38 -13 38 -30
0 -16 9 -30 20 -30 11 0 20 9 20 21 0 54 67 41 122 -23 46 -54 58 -60 58 -30
0 21 -14 48 -30 60 -36 27 -115 226 -94 239 37 23 118 -15 154 -73 94 -156
108 -214 51 -214 -21 0 -44 -9 -51 -20 -7 -11 -3 -20 9 -20 11 0 21 -18 21
-40 0 -37 23 -48 95 -45 13 0 20 -8 14 -17 -17 -27 19 -22 47 6 47 47 165 36
152 -15 -9 -37 -3 -44 41 -44 70 0 79 -12 80 -106 1 -43 9 -79 19 -79 11 0 -1
-21 -25 -46 -23 -26 -43 -64 -42 -85 0 -38 1 -38 23 1 13 22 40 52 61 67 28
20 32 34 17 49 -43 43 -26 84 18 44 38 -34 115 -11 92 27 -4 7 6 26 24 42 28
26 30 26 17 -7 -12 -33 -10 -34 19 -10 30 25 32 23 19 -20 -11 -32 -8 -43 7
-33 13 7 22 0 22 -19 0 -25 -8 -27 -40 -10 -43 23 -46 20 -28 -29 12 -30 17
-30 60 -1 27 17 48 26 48 20 0 -6 19 -1 42 11 37 20 39 18 19 -19 -12 -23 -36
-42 -52 -42 -16 0 -29 -10 -29 -22 0 -12 -14 -17 -31 -10 -17 6 -35 -2 -42
-19 -18 -47 9 -59 49 -22 21 18 44 33 51 33 8 0 34 18 58 40 59 55 195 56 195
2 0 -21 -11 -43 -25 -47 -14 -5 21 -8 78 -7 108 2 155 -18 109 -47 -17 -10
-21 -32 -12 -61 11 -34 8 -41 -11 -29 -18 11 -22 6 -13 -17 7 -18 4 -38 -7
-45 -47 -29 -19 -68 34 -48 60 23 77 14 60 -30 -6 -17 -24 -26 -39 -20 -15 6
-39 -3 -53 -20 -14 -17 -39 -31 -55 -31 -15 0 -23 -9 -16 -20 7 -11 -1 -20
-17 -20 -16 0 -34 -13 -40 -30 -16 -41 -4 -38 109 23 54 30 104 47 112 40 19
-19 -27 -48 -270 -173 -118 -60 -218 -112 -222 -115 -5 -3 -2 -11 6 -19 7 -8
31 -4 53 10 44 27 66 31 52 8 -6 -8 16 -30 47 -48 67 -38 134 9 115 82 -7 26
-2 36 15 29 14 -5 48 20 76 56 51 64 52 65 92 29 47 -43 36 -79 -17 -62 -23 7
-41 -1 -49 -21 -9 -24 -3 -29 28 -19 94 30 92 -89 -2 -145 -32 -18 -58 -51
-58 -71 0 -26 -10 -34 -30 -27 -41 16 -90 -5 -90 -39 0 -15 -10 -28 -21 -28
-12 0 -16 9 -9 20 7 11 -1 14 -19 8 -17 -7 -31 -23 -31 -36 0 -25 -114 -132
-140 -132 -35 0 -33 52 4 105 21 30 32 65 24 78 -10 16 1 19 37 10 59 -15 36
74 -25 96 -16 6 -41 16 -55 23 -14 6 -25 -2 -25 -20 0 -18 -8 -32 -17 -32 -9
0 -45 -27 -80 -60 -48 -46 -55 -60 -28 -60 34 0 100 -111 79 -133 -22 -21
-174 158 -174 205 0 29 -12 48 -30 48 -16 0 -28 11 -25 25 3 14 -8 23 -25 20
-23 -4 -22 1 5 22 19 15 29 33 21 40 -7 7 2 13 19 13 18 0 39 11 47 23 10 16
4 20 -17 12 -20 -8 -35 1 -41 26 -6 22 -20 39 -31 39 -12 0 -17 -13 -10 -30 8
-21 -2 -30 -31 -30 -41 0 -54 42 -44 140 3 25 1 25 -15 2 -12 -18 -39 -24 -76
-17 -31 6 -72 3 -91 -7 -44 -24 -68 13 -32 50 64 67 96 115 96 142 0 32 -57
20 -90 -20 -11 -13 -29 -28 -40 -32 -10 -4 -22 -25 -25 -47 -8 -49 -17 -58
-44 -41 -13 7 -17 32 -9 57 7 24 6 36 -3 28 -8 -8 -27 1 -42 20 -25 31 -26 29
-15 -20 7 -34 4 -55 -9 -55 -29 0 -68 76 -53 100 7 11 -6 20 -29 20 -23 0 -41
-13 -41 -30 0 -35 -31 -40 -51 -9 -7 12 -25 17 -40 11 -19 -7 -23 1 -14 24 10
27 7 30 -16 12 -16 -12 -68 -18 -115 -13 l-87 9 6 88 c3 47 -1 93 -9 101 -24
24 -15 107 11 108 14 0 -4 13 -40 29 -36 15 -65 38 -65 50 0 12 -11 16 -23 8
-16 -10 -20 -4 -11 20 8 19 6 29 -4 23 -23 -14 -44 41 -29 79 6 17 1 30 -11
30 -12 0 -22 -11 -22 -24 0 -33 -65 42 -95 109 -14 33 -40 55 -63 55 -60 0
-71 71 -22 140 l43 60 -58 0 c-31 0 -68 11 -81 24 -32 32 -31 82 1 64 20 -11
20 -8 0 13 -30 32 -33 67 -5 49 11 -7 20 -3 20 8 0 11 -9 25 -20 32 -11 7 -20
46 -20 87 0 106 99 149 138 60 24 -54 82 -80 82 -37 0 11 -9 20 -20 20 -31 0
-103 179 -97 241 5 39 -6 67 -33 87 -32 23 -35 34 -15 55 19 19 25 19 25 1 0
-13 27 -24 60 -24 61 0 61 0 27 52 -27 40 -46 50 -91 43 -62 -9 -97 19 -57 45
23 14 251 -21 325 -50z m2120 -208 c64 -62 87 -96 70 -106 -109 -69 -283 93
-236 218 7 18 87 -36 166 -112z m-856 46 c30 -79 6 -91 -217 -114 -64 -7 -56
110 9 128 95 26 195 20 208 -14z m-1016 -43 c20 -30 35 -62 32 -70 -5 -17 19
-21 113 -15 68 3 143 -44 143 -92 0 -41 -129 -55 -244 -26 -104 25 -121 29
-171 35 -37 5 -30 39 10 48 22 5 4 17 -48 32 -45 13 -97 18 -115 11 -21 -8
-32 -2 -32 19 0 42 38 63 66 35 29 -29 55 -28 49 1 -6 27 78 76 128 77 18 0
49 -25 69 -55z m4108 29 c0 -24 -64 -39 -370 -88 -87 -14 -126 -40 -160 -106
-50 -96 -288 -269 -323 -234 -5 5 46 49 113 96 74 52 138 116 161 160 26 52
58 81 104 94 61 19 381 89 460 102 8 1 15 -10 15 -24z m-2643 -45 c13 -28 23
-62 22 -75 -1 -33 -79 64 -79 98 0 45 32 32 57 -23z m-766 -30 c17 -34 28 -72
24 -84 -4 -12 -19 7 -34 42 -14 34 -34 63 -43 63 -10 0 -18 9 -18 20 0 41 40
18 71 -41z m3468 -19 c0 -16 -22 -46 -48 -65 -72 -52 -96 27 -28 92 47 44 77
34 76 -27z m-3169 -39 c6 -11 -20 -33 -59 -49 -41 -17 -71 -44 -71 -63 0 -31
4 -31 49 -2 32 22 53 25 62 11 7 -11 10 -23 6 -25 -122 -83 -197 -69 -197 37
0 51 185 130 210 91z m491 -105 c22 -81 20 -87 -34 -131 -92 -76 -127 -91
-127 -56 0 16 28 44 62 62 59 31 61 36 49 121 -17 114 20 117 50 4z m278 9
c128 -197 128 -200 79 -226 -51 -28 -93 12 -158 150 -65 138 -2 200 79 76z
m292 -48 c97 -191 97 -193 13 -228 -40 -16 -85 -44 -98 -62 -23 -31 -66 -22
-66 15 0 17 83 60 164 86 31 9 27 27 -35 162 -76 167 -59 187 22 27z m1907 95
c18 -21 16 -30 -6 -39 -21 -8 -26 -2 -18 21 9 21 3 28 -16 21 -15 -5 -25 -21
-22 -35 6 -25 -69 -100 -99 -100 -9 0 -17 14 -17 30 0 17 11 30 24 30 19 0 19
5 0 24 -19 19 -12 29 31 48 74 33 96 33 123 0z m-3931 -139 c22 22 124 -71
167 -151 l44 -82 -47 0 c-26 0 -60 -5 -76 -11 -18 -7 -50 21 -87 75 -32 47
-65 91 -74 98 -8 6 -10 25 -3 43 6 17 2 37 -10 44 -11 7 -21 29 -20 47 0 27
11 22 48 -20 26 -29 52 -49 58 -43z m448 68 c44 -2 78 -100 44 -124 -22 -16
-19 -17 11 -5 99 40 327 33 390 -12 78 -56 76 -63 -25 -105 -107 -43 -289 -11
-279 50 6 38 -26 48 -46 15 -7 -11 -50 -20 -96 -19 -70 0 -78 4 -47 22 33 19
28 26 -50 61 -77 35 -123 46 -237 56 -17 1 -8 12 20 24 84 35 167 51 230 45
33 -3 71 -7 85 -8z m4465 -68 c0 -79 -17 -101 -53 -70 -15 12 -27 14 -27 4 0
-10 18 -31 40 -47 38 -27 59 -114 22 -91 -31 19 -40 -69 -9 -99 25 -25 23 -37
-16 -90 -35 -47 -39 -66 -21 -84 36 -36 30 -50 -28 -65 -69 -17 -129 4 -115
40 9 22 -1 28 -36 22 -26 -4 -47 -20 -47 -35 0 -15 11 -26 25 -23 38 8 30 -29
-10 -44 -42 -16 -54 -10 -55 29 0 17 -11 28 -24 25 -37 -7 -75 74 -48 101 32
32 27 63 -5 36 -30 -25 -55 -4 -80 65 -15 42 61 118 103 103 14 -5 21 -2 15 8
-17 28 41 64 80 49 26 -10 31 -7 20 12 -21 33 176 221 231 221 30 0 38 -14 38
-67z m-3284 -106 c51 -100 44 -120 -48 -138 -87 -18 -132 113 -64 185 57 61
58 60 112 -47z m4104 -46 c0 -10 -21 -43 -47 -73 -59 -69 -88 -33 -31 40 41
52 78 68 78 33z m-4477 -18 c69 -2 110 -17 155 -55 101 -84 83 -108 -79 -108
-144 0 -195 16 -267 83 -24 22 -53 32 -71 25 -59 -26 -141 -32 -141 -12 0 33
161 77 260 73 28 -2 92 -4 143 -6z m-694 -34 c84 -16 104 -39 70 -80 -20 -25
-17 -39 18 -76 58 -62 56 -65 -39 -63 -91 2 -104 16 -147 161 -24 77 -24 90
-1 82 15 -6 59 -17 99 -24z m319 -115 c54 -43 76 -53 67 -29 -8 19 -6 35 3 35
14 0 82 -140 82 -169 0 -4 -46 -14 -101 -21 -112 -16 -157 9 -211 114 -83 160
0 196 160 70z m1152 70 c0 -8 -18 -31 -40 -49 -41 -35 -50 -24 -28 33 12 32
68 45 68 16z m151 -26 c8 -12 2 -30 -12 -39 -22 -13 -21 -23 2 -52 26 -33 26
-35 -4 -11 -24 19 -37 20 -47 4 -8 -13 -27 -18 -43 -11 -17 6 -47 2 -68 -10
-71 -38 -42 27 37 84 82 60 115 68 135 35z m-1110 -95 c1 -55 57 -144 58 -92
1 23 -10 52 -23 65 -19 19 -17 24 9 24 18 0 40 -12 49 -26 9 -14 48 -48 86
-74 117 -80 124 -123 20 -110 -81 11 -95 -22 -16 -38 39 -8 69 -4 78 11 15 24
135 -55 137 -90 2 -34 -216 2 -279 47 -56 40 -180 258 -180 316 0 36 60 3 61
-33z m747 -8 c111 -99 -17 -187 -162 -113 -41 21 -91 38 -110 38 -20 0 -36 14
-36 30 0 34 -76 40 -172 12 -36 -10 -74 -10 -90 0 -16 9 -23 18 -18 20 275 68
521 73 588 13z m738 -15 c14 -55 -51 -92 -87 -49 -13 16 -19 36 -12 42 6 7 18
-2 25 -20 7 -18 21 -27 32 -20 13 7 11 18 -4 27 -14 9 -19 26 -11 38 21 34 45
26 57 -18z m-331 -86 l86 -45 -96 -27 c-52 -15 -110 -41 -129 -57 -31 -27 -45
-25 -129 14 -75 36 -103 40 -141 23 -67 -31 -103 -27 -55 5 167 115 346 148
464 87z m1868 1 c40 -62 -126 -211 -177 -159 -52 53 -168 54 -234 2 -30 -23
-59 -38 -64 -33 -14 15 147 142 242 192 81 42 205 41 233 -2z m-2481 -84 c42
-39 100 -76 128 -83 66 -16 56 -45 -30 -91 l-68 -36 64 -13 c57 -12 92 -48 45
-48 -131 0 -449 299 -346 326 88 23 134 11 207 -55z m1081 37 c74 -38 63 -49
-93 -103 -168 -57 -297 -72 -281 -31 9 25 1 28 -44 17 -30 -8 -91 -18 -135
-24 -117 -13 -47 38 99 73 61 14 111 34 111 44 0 10 7 14 16 8 9 -5 57 3 105
18 118 36 149 36 222 -2z m-1729 -101 c-38 -79 -45 -86 -51 -45 -4 25 -22 57
-40 71 -38 27 -35 31 47 59 87 31 94 17 44 -85z m2175 79 c89 -42 89 -49 -9
-126 l-80 -63 -69 42 c-65 40 -73 41 -129 12 -54 -28 -60 -28 -49 -1 14 38 -3
38 -119 -2 -132 -45 -164 -22 -44 33 87 39 374 135 414 138 8 1 46 -14 85 -33z
m531 4 c0 -33 -145 -137 -268 -191 -161 -71 -164 -107 -19 -192 62 -36 82 -58
65 -68 -32 -20 -90 9 -171 85 l-63 60 -58 -43 -59 -43 -104 52 c-57 29 -99 60
-94 69 6 9 -3 22 -19 28 -44 17 -37 73 9 73 39 0 164 -64 224 -115 29 -24 41
-24 86 6 51 34 60 83 21 116 -13 10 -11 20 5 26 14 6 19 20 12 32 -8 14 -2 17
17 10 20 -8 30 -1 29 19 -4 39 34 59 157 80 167 29 230 28 230 -4z m-1625
-162 c54 -56 85 -106 80 -126 -7 -25 5 -35 43 -37 50 -4 50 -3 13 25 -49 38
-31 56 38 39 34 -9 50 -24 43 -41 -6 -15 -4 -26 4 -25 47 10 133 -48 94 -64
-111 -45 -356 2 -319 62 6 10 -14 43 -45 74 -56 55 -106 134 -106 167 0 45 75
9 155 -74z m2185 64 c0 -40 -50 -75 -87 -60 -45 17 -41 38 12 64 61 29 75 29
75 -4z m-503 -66 c-24 -24 -50 -40 -59 -34 -28 16 27 85 65 82 33 -2 32 -6 -6
-48z m-1028 -117 c59 -44 20 -58 -74 -28 -83 28 -107 33 -182 37 -24 1 -33 12
-26 31 7 19 1 25 -18 18 -18 -7 -29 1 -29 19 0 61 206 13 329 -77z m1450 75
c61 -56 62 -57 23 -92 -47 -42 -98 -25 -60 20 44 53 1 53 -55 0 -64 -59 -78
-63 -93 -25 -6 16 -36 34 -67 42 -147 37 -138 87 18 96 69 4 136 9 149 11 13
2 51 -21 85 -52z m-514 -40 c74 -59 60 -137 -26 -151 -16 -3 -49 -16 -74 -30
-25 -13 -45 -19 -45 -12 0 21 56 69 82 69 14 0 19 6 12 13 -8 7 1 24 19 37 18
13 29 35 24 48 -6 18 -22 14 -57 -14 -78 -61 -132 -70 -189 -33 -66 44 -64 63
9 79 33 7 65 21 71 32 22 35 104 17 174 -38z m-1092 -110 c106 -34 183 -33
204 1 9 15 25 13 52 -6 49 -37 39 -45 -88 -69 -144 -27 -456 127 -409 203 6
10 41 -8 78 -40 36 -32 110 -72 163 -89z m270 99 c-26 -30 102 -113 175 -113
23 0 42 -8 42 -18 0 -10 27 -27 60 -39 48 -17 60 -15 60 7 0 19 12 24 33 16
23 -9 29 -5 19 11 -20 33 18 29 46 -5 50 -60 -132 -101 -239 -54 -202 90 -318
222 -194 222 12 0 11 -10 -2 -27z m1025 -18 c86 -55 101 -112 17 -66 -103 57
-155 111 -106 111 10 0 50 -20 89 -45z m-1850 -83 c49 -44 54 -72 13 -72 -45
0 -215 -375 -191 -421 30 -55 24 -79 -20 -79 -43 0 -137 -164 -101 -176 12 -4
21 -17 21 -28 0 -14 -9 -13 -27 1 -29 25 -113 -69 -113 -126 0 -40 -38 -47
447 79 572 148 1144 285 1253 300 135 19 56 -37 -99 -70 -65 -14 -123 -38
-129 -53 -8 -21 -2 -24 23 -11 32 15 60 17 100 4 17 -5 -97 -36 -180 -49 -31
-5 -64 -14 -74 -20 -10 -6 -61 -17 -114 -23 -53 -6 -103 -15 -111 -21 -9 -5
-16 -1 -16 9 0 10 52 29 115 44 98 23 185 60 138 60 -33 0 -1223 -303 -1328
-338 -63 -21 -149 -45 -191 -53 -48 -9 -88 -32 -108 -62 -35 -53 -161 -63
-151 -12 6 31 17 31 -209 -7 -178 -31 -248 -26 -188 11 17 11 21 26 10 44 -23
35 -26 177 -3 177 9 0 32 -28 51 -62 73 -134 95 -152 139 -113 21 19 43 31 48
25 8 -8 226 25 417 64 58 11 141 109 104 121 -13 5 -24 22 -24 38 0 21 12 26
40 17 26 -8 40 -4 41 14 0 14 22 71 49 126 50 101 67 203 30 180 -11 -7 -20
-8 -20 -4 0 22 62 150 99 204 84 124 5 238 -114 163 -32 -20 -31 -13 3 70 38
90 31 87 188 87 109 0 149 -8 182 -38z m2269 -17 c11 -44 11 -44 -20 -5 -31
40 -31 40 -19 0 51 -174 85 -610 62 -790 -30 -229 -71 -418 -93 -432 -10 -6
-17 -28 -17 -49 0 -34 -6 -36 -38 -16 -28 18 -34 35 -22 66 20 54 34 443 16
461 -15 16 -45 -38 -64 -117 -10 -41 -7 -52 10 -42 44 27 8 -341 -51 -519 -28
-87 -48 -162 -44 -166 6 -6 54 113 85 212 5 15 13 24 17 19 21 -20 -61 -276
-114 -356 -32 -49 -67 -110 -77 -135 -18 -49 -199 -282 -220 -285 -7 0 27 78
75 174 48 96 85 194 82 217 -2 23 5 55 18 70 12 15 37 96 55 178 19 83 43 185
54 228 32 117 46 432 20 432 -12 0 -23 -29 -25 -65 -1 -36 -4 -83 -7 -105 -77
-594 -79 -579 -94 554 -4 336 12 396 106 396 20 0 84 27 142 59 128 72 148 74
163 16z m-513 -48 c4 -12 -11 -43 -33 -69 -28 -32 -37 -37 -29 -13 16 47 2 44
-92 -15 -44 -27 -86 -50 -95 -50 -55 0 -101 -63 -86 -116 16 -57 -23 -146 -52
-118 -7 8 -25 4 -40 -9 -38 -31 -36 43 2 94 61 80 21 124 -44 49 -34 -40 -145
-57 -145 -22 0 30 97 84 110 61 8 -11 55 15 112 62 54 46 98 76 98 67 0 -9 11
-5 24 8 13 13 42 24 65 24 23 0 68 17 101 39 63 40 93 42 104 8z m94 -70 c-73
-106 -132 -165 -275 -275 -195 -150 -151 -72 87 158 238 228 285 258 188 117z
m-986 18 c1 -20 3 -20 11 0 6 14 24 25 41 25 51 0 -7 -55 -73 -70 -31 -7 -73
-30 -92 -51 -19 -22 -56 -39 -82 -39 -55 0 -82 -74 -49 -135 19 -37 14 -39
-64 -33 -100 8 -110 3 -188 -106 -33 -47 -66 -79 -72 -73 -7 6 -36 -8 -66 -31
-36 -28 -60 -36 -68 -22 -9 15 -22 12 -39 -9 -16 -19 -43 -26 -71 -19 -25 6
-51 2 -58 -9 -22 -35 -93 -3 -74 34 10 18 23 64 29 103 6 38 20 72 31 76 11 4
15 22 9 40 -8 27 -3 25 24 -6 33 -39 33 -39 24 15 -5 30 -1 55 10 55 11 0 15
17 10 38 -15 56 19 101 47 62 17 -24 19 -18 12 25 -7 48 -4 52 22 30 27 -21
29 -18 19 21 -9 36 -1 50 35 64 47 18 217 20 199 2 -13 -13 74 -102 99 -102
12 0 9 9 -7 19 -38 24 -17 46 27 29 35 -13 26 -85 -14 -111 -11 -7 -14 -29 -7
-48 17 -42 113 49 113 107 1 65 67 121 150 130 44 4 87 9 95 11 8 1 16 -8 17
-22z m337 -30 c-3 -65 -93 -124 -155 -101 -81 31 -82 54 -3 52 34 -1 76 13 94
31 35 35 65 43 64 18z m-202 -112 c13 -15 16 -33 8 -41 -8 -9 0 -26 18 -40 42
-30 55 -95 22 -107 -14 -4 -25 2 -25 14 0 16 -11 16 -39 2 -26 -14 -43 -14
-51 -1 -7 11 -27 20 -44 20 -26 0 -106 70 -106 93 0 75 167 121 217 60z m-282
-113 c25 -63 39 -78 68 -69 20 6 37 2 37 -10 0 -11 -9 -21 -19 -21 -11 0 -15
-13 -9 -28 6 -15 2 -33 -9 -40 -32 -20 -86 11 -74 42 6 15 -2 48 -17 72 -43
67 -58 134 -32 134 13 0 37 -36 55 -80z m982 -80 c4 -62 -4 -84 -31 -94 -31
-12 -29 -16 14 -26 l50 -12 1 -289 c3 -540 -51 -819 -227 -1169 -44 -88 -89
-190 -101 -226 -12 -36 -40 -92 -62 -123 -23 -31 -41 -63 -41 -71 0 -8 -56
-88 -125 -177 -162 -209 -235 -319 -235 -350 0 -14 -18 -44 -40 -68 -23 -24
-51 -80 -64 -124 -13 -45 -29 -90 -37 -101 -19 -29 -39 -119 -52 -237 -13
-119 -50 -207 -63 -148 -4 20 3 65 14 100 12 36 21 169 21 295 -1 369 1 378
131 556 66 91 102 108 81 39 -31 -100 -74 -269 -84 -332 -19 -121 26 -50 81
126 29 93 62 175 72 181 31 19 23 90 -10 90 -45 0 -36 40 21 93 66 61 82 60
41 -2 -45 -70 -40 -86 10 -29 107 122 246 360 308 528 20 55 46 112 58 127 39
51 146 403 162 533 42 333 48 397 39 412 -6 10 -4 29 4 43 9 14 17 58 19 98 2
40 10 101 18 135 11 50 7 60 -17 50 -98 -37 -64 184 38 251 1 1 3 -35 6 -79z
m-3291 -56 c101 -63 213 -127 249 -142 59 -25 64 -33 55 -99 -5 -40 -13 -156
-18 -257 -10 -213 -14 -224 -86 -217 -79 9 -166 208 -166 380 0 67 37 26 49
-54 21 -141 54 -253 83 -277 22 -18 21 -7 -3 51 -17 41 -36 132 -43 202 -8 89
-20 129 -39 129 -15 0 -27 18 -27 40 0 22 -9 40 -20 40 -48 0 -297 129 -286
149 6 11 -15 -9 -46 -46 -61 -70 -155 -99 -283 -87 -97 10 -83 24 127 134 105
55 205 116 223 135 40 45 20 52 231 -81z m2230 30 l54 9 -60 -40 c-96 -64
-170 -76 -170 -27 0 39 103 96 116 64 3 -8 30 -10 60 -6z m929 -97 c6 -72 2
-91 -18 -83 -16 6 -27 -3 -27 -22 0 -18 13 -32 28 -32 52 0 73 -131 28 -176
-67 -67 -110 -29 -124 111 -8 74 -19 155 -25 180 -9 34 0 49 39 63 28 11 56
30 64 42 20 33 26 21 35 -83z m-3665 53 c0 -16 -10 -30 -22 -30 -12 0 -46 -17
-75 -37 -137 -97 -188 -69 -57 31 91 69 154 84 154 36z m3500 -79 c0 -32 -127
-75 -171 -58 -49 19 -32 42 46 63 107 28 125 28 125 -5z m-3680 -117 c220 -61
267 -70 430 -87 182 -18 307 -138 252 -242 -27 -50 -122 -465 -122 -530 0 -61
-53 -103 -155 -122 -71 -13 -90 22 -36 66 16 13 34 50 41 83 8 32 35 97 60
144 26 46 58 127 71 179 13 52 32 95 41 95 10 0 17 7 15 15 -2 8 7 40 20 71
38 94 12 102 -81 24 -90 -76 -173 -35 -92 46 34 34 -4 30 -42 -4 -75 -66 -327
16 -437 143 -40 46 -60 59 -52 35 13 -37 10 -37 -36 5 -56 51 -77 56 -77 21 0
-30 120 -156 149 -156 12 0 122 -58 246 -128 124 -70 239 -133 255 -139 32
-13 28 -33 -35 -173 -93 -208 -121 -275 -148 -364 -30 -101 -87 -156 -161
-156 -61 0 -58 12 23 141 68 106 85 159 58 186 -8 7 -16 40 -20 73 -8 71 73
128 117 84 17 -17 9 -28 -31 -43 -70 -26 -67 -40 7 -35 33 2 60 13 60 24 0 11
27 60 59 109 68 102 64 129 -9 61 -28 -26 -84 -59 -124 -73 -77 -26 -117 -18
-66 13 16 10 22 25 13 33 -8 9 -23 3 -33 -13 -15 -24 -35 -17 -114 39 -53 38
-143 100 -201 138 -58 38 -105 76 -105 86 0 9 -13 17 -28 17 -16 0 -56 23 -88
50 -66 55 -104 64 -104 24 0 -27 234 -259 491 -487 l139 -123 -34 -57 c-19
-31 -71 -127 -115 -212 -96 -183 -110 -187 -280 -77 -66 42 -143 83 -171 90
-55 14 -69 52 -19 52 17 0 60 -15 95 -33 127 -67 252 -39 253 55 1 23 26 37
81 46 83 13 114 56 35 50 -25 -2 -67 -3 -95 -1 l-50 3 60 48 c33 27 54 54 47
61 -7 8 -39 -15 -72 -50 l-59 -63 -120 112 c-165 152 -191 150 -378 -31 -81
-79 -148 -156 -148 -171 0 -15 -22 -69 -49 -121 -47 -91 -141 -406 -171 -575
-21 -118 -42 -157 -126 -248 -88 -95 -107 -100 -138 -32 -12 28 -30 50 -40 50
-18 0 -116 204 -116 241 0 61 89 151 151 153 36 1 106 26 156 56 51 29 100 48
109 42 33 -20 73 142 48 193 -22 43 -22 43 -12 -8 12 -55 -49 -112 -107 -100
-14 2 -25 -9 -25 -26 0 -17 -13 -31 -30 -31 -16 0 -30 -7 -30 -16 0 -44 -117
-86 -140 -49 -19 28 -21 29 -13 2 7 -24 0 -30 -28 -22 -56 14 -48 56 19 103
49 35 67 77 122 280 62 228 73 249 224 456 87 119 183 254 212 301 29 46 77
93 106 103 29 10 57 38 64 65 l12 47 -40 -48 c-47 -57 -75 -41 -40 23 54 102
95 136 172 149 46 7 109 37 148 71 78 68 93 68 382 -11z m485 16 c10 -54 -79
-73 -145 -30 -26 17 -26 19 3 20 17 0 43 14 57 30 37 45 74 36 85 -20z m207
-36 c7 -6 6 -21 -1 -33 -21 -34 -170 56 -171 103 0 14 149 -47 172 -70z m2998
-19 c7 -47 17 -101 23 -120 28 -101 -81 -71 -117 32 -46 131 -45 148 9 159 25
5 51 10 58 11 8 2 19 -35 27 -82z m-170 -5 c0 -57 -93 -96 -210 -86 -122 10
-146 -12 -45 -42 36 -10 49 -19 29 -20 -19 -1 -40 -15 -47 -31 -9 -26 -15 -26
-40 -1 -15 15 -41 23 -58 17 -16 -6 -29 -1 -29 11 0 13 13 28 30 35 46 17 14
49 -37 36 -24 -6 -69 2 -99 17 l-56 29 50 10 c28 5 58 1 68 -9 16 -16 320 34
342 56 23 22 102 5 102 -22z m-636 -32 c33 -18 36 -26 14 -40 -41 -26 -52 -22
-64 22 -12 46 -6 48 50 18z m-1507 -40 c19 -30 20 -49 5 -64 -26 -26 -33 -19
-50 51 -15 65 8 72 45 13z m2734 -405 c-16 -481 -20 -526 -48 -559 -12 -15
-40 -81 -60 -146 -59 -182 -159 -358 -244 -426 -107 -87 -110 -80 -31 73 39
74 81 162 93 195 83 217 125 331 150 410 47 147 90 430 91 595 1 221 17 322
43 276 12 -23 15 -175 6 -418z m-4917 313 c-53 -50 -100 -86 -106 -81 -6 6 32
52 85 102 52 51 100 87 105 81 6 -6 -32 -51 -84 -102z m4359 44 c-3 -51 -133
-80 -133 -30 0 11 17 20 38 20 21 0 43 14 49 30 19 48 49 35 46 -20z m-991
-32 c26 -26 53 -36 75 -27 18 8 60 16 93 18 33 3 85 15 116 28 68 28 234 31
234 4 0 -24 -129 -61 -215 -61 -36 0 -65 -7 -65 -15 0 -8 -47 -41 -105 -73
-154 -86 -183 -139 -61 -111 42 9 117 8 175 -3 55 -11 132 -17 170 -14 56 5
75 -3 92 -39 39 -77 93 -125 143 -125 90 0 235 147 236 240 0 20 20 30 59 30
67 0 151 -227 92 -246 -20 -7 -20 -12 1 -25 21 -13 14 -43 -35 -143 -34 -69
-77 -168 -97 -220 -43 -117 -76 -152 -245 -262 -142 -92 -365 -312 -365 -359
0 -15 -26 -68 -58 -118 -31 -50 -68 -122 -82 -160 -46 -126 -713 -509 -843
-483 -79 15 -527 256 -527 282 0 62 131 204 188 204 48 0 73 18 124 90 36 50
67 90 69 90 2 0 55 -23 117 -50 172 -76 267 -62 577 86 155 74 221 145 92 100
-145 -51 -1058 85 -1108 165 -12 20 -151 84 -160 74 -14 -13 50 -74 159 -150
96 -69 111 -86 80 -96 -116 -37 -132 -50 -121 -95 9 -36 -13 -72 -108 -171
l-119 -126 -89 73 c-122 100 -431 440 -430 473 0 16 10 10 23 -13 12 -22 29
-44 37 -50 81 -57 119 -94 119 -115 0 -23 31 -33 95 -30 14 0 25 -12 25 -27 0
-44 28 -34 194 65 207 123 230 145 172 160 -25 6 -50 28 -57 49 -6 21 -20 34
-30 28 -9 -6 -13 -23 -8 -36 6 -15 -6 -25 -30 -25 -21 0 -35 4 -30 8 12 12
-31 63 -54 63 -10 0 -14 -22 -9 -50 5 -27 1 -54 -9 -60 -9 -6 -12 -24 -6 -41
14 -36 -19 -37 -78 -4 -81 45 -135 101 -135 140 0 20 -8 33 -17 27 -14 -9 -38
72 -74 258 -16 78 170 411 213 384 21 -13 38 -36 38 -51 0 -23 -6 -23 -30 -3
-24 20 -30 19 -30 -5 0 -17 32 -55 71 -85 73 -55 115 -56 69 0 -43 52 -3 60
50 10 28 -26 50 -42 50 -35 0 7 28 -16 61 -49 42 -42 68 -55 82 -41 14 14 -9
48 -74 108 -52 48 -107 116 -122 151 -25 61 -67 106 -67 72 0 -9 19 -46 41
-83 23 -37 36 -72 31 -78 -12 -12 -153 106 -178 148 -35 58 -72 23 -115 -108
-25 -74 -65 -164 -89 -200 -32 -48 -42 -87 -36 -140 4 -41 10 -102 13 -135 7
-84 66 -188 150 -265 76 -69 53 -87 -50 -40 -71 32 -227 174 -227 206 0 13
-13 35 -28 47 -66 55 -54 114 76 385 136 284 187 364 205 322 14 -35 84 -31
121 6 21 21 38 24 55 10 14 -11 30 -15 36 -9 7 6 42 -2 78 -18 37 -16 110 -44
162 -63 52 -19 95 -43 95 -53 0 -28 -34 -21 -69 14 -18 18 -45 27 -62 21 -16
-7 -29 -3 -29 8 0 25 -54 25 -69 0 -16 -25 115 -86 196 -92 34 -2 122 -16 193
-30 211 -43 616 -41 589 3 -6 10 12 18 40 18 28 0 51 9 51 20 0 11 -10 20 -21
20 -12 0 -67 47 -122 105 -97 101 -100 72 -6 -58 31 -43 -100 -38 -177 6 -13
7 -2 -11 25 -40 l48 -53 -96 29 c-53 16 -122 53 -154 83 -66 65 -101 52 -39
-14 78 -84 49 -97 -97 -47 -153 54 -256 107 -268 138 -6 17 -23 31 -37 31 -19
-1 -17 -6 3 -19 17 -10 24 -25 16 -32 -18 -19 -126 21 -188 69 l-50 40 46 11
c122 26 255 26 265 -1 6 -17 24 -22 46 -14 31 12 32 9 10 -18 -17 -22 -19 -37
-5 -45 12 -8 22 -2 23 13 1 20 3 20 11 1 6 -14 18 -21 27 -15 10 6 29 -5 44
-25 30 -40 116 -116 116 -102 0 5 -22 40 -50 77 -27 37 -50 77 -50 89 0 11 9
8 20 -9 11 -16 20 -22 20 -11 0 10 12 2 27 -18 26 -35 28 -34 40 16 18 70 38
67 127 -17 41 -38 84 -70 95 -70 12 1 2 16 -20 35 -52 44 -116 145 -92 145 11
0 47 -32 82 -72 35 -40 68 -67 74 -61 6 6 -8 31 -31 55 -50 54 -52 71 -13 109
37 38 51 37 51 -3 0 -24 12 -29 45 -21 25 7 56 13 70 13 14 0 25 17 25 38 0
59 63 121 139 135 l69 14 -39 -61 c-21 -34 -68 -95 -104 -136 -128 -150 -9
-149 241 1 256 155 303 222 62 90 -59 -33 -108 -51 -108 -40 0 10 7 19 16 19
9 0 42 41 73 90 65 102 75 106 133 48z m-187 -57 c-73 -86 -194 -189 -165
-141 76 126 159 220 193 220 35 0 32 -10 -28 -79z m1490 -36 c-12 -129 -68
-412 -96 -478 -14 -35 -21 -68 -16 -73 5 -6 -1 -48 -13 -95 -16 -58 -29 -77
-40 -60 -11 19 -19 15 -30 -18 -7 -24 -19 -39 -25 -33 -6 6 -43 -14 -83 -44
-40 -29 -94 -66 -121 -82 l-49 -27 53 62 c87 104 275 513 324 706 37 146 64
205 102 217 1 0 -2 -34 -6 -75z m-133 -11 c16 5 28 0 28 -12 0 -12 -7 -21 -15
-20 -40 7 -47 -5 -22 -36 18 -23 19 -29 2 -19 -14 9 -25 6 -25 -6 0 -52 -37
-13 -55 59 -20 77 -19 78 20 51 22 -15 52 -23 67 -17z m-432 -58 c0 -30 -39
-16 -59 21 -26 50 1 75 33 30 15 -19 26 -42 26 -51z m-120 -20 c0 -60 -2 -62
-29 -25 -38 51 -39 89 -1 89 20 0 30 -20 30 -64z m229 46 c16 -26 -10 -84 -31
-71 -24 15 -23 89 1 89 10 0 24 -8 30 -18z m-2829 -13 c0 -7 -14 -26 -31 -43
-17 -17 -26 -44 -20 -60 7 -20 0 -27 -24 -22 -48 9 -57 78 -13 110 36 27 88
35 88 15z m2774 -109 c7 -86 -131 -147 -197 -87 -66 59 -47 94 44 81 55 -7 88
-2 105 17 33 38 45 36 48 -11z m-3472 -43 c111 -79 107 -75 95 -87 -17 -16
-125 45 -177 99 -65 70 -24 64 82 -12z m-214 -369 c61 -51 112 -96 112 -100 0
-28 -107 1 -157 42 l-60 51 -13 -61 c-7 -33 -30 -72 -51 -87 -60 -42 -99 -161
-99 -304 0 -317 -62 -581 -155 -659 l-72 -60 15 60 c44 178 43 181 -56 229
-112 54 -112 49 -7 149 60 58 97 117 125 202 22 66 47 125 56 132 10 7 14 41
10 75 l-6 64 -75 -41 c-87 -47 -96 -28 -24 57 31 37 42 65 29 73 -40 25 4 52
64 39 55 -12 59 -9 46 30 -16 50 25 105 120 164 78 48 68 51 198 -55z m-8
-169 c0 -23 -7 -38 -15 -33 -8 4 -31 14 -51 21 -45 16 -26 53 27 53 26 0 39
-14 39 -41z m195 -3 c-10 -32 -70 -68 -87 -51 -7 7 -8 27 -1 44 14 36 100 43
88 7z m665 5 c0 -10 -8 -24 -18 -30 -10 -6 -56 -89 -103 -186 -93 -191 -455
-577 -664 -709 -52 -33 -95 -67 -95 -75 0 -26 -104 -57 -198 -59 -113 -2 -126
-16 -45 -47 77 -29 71 -67 -9 -61 -32 3 -127 5 -211 5 -134 0 -159 6 -212 50
-34 28 -71 51 -83 51 -36 0 -25 59 25 126 26 35 57 92 71 125 21 53 32 61 83
53 59 -9 59 -9 19 -44 -41 -35 -37 -94 8 -124 30 -20 2 -41 -55 -41 -46 0 -89
-63 -56 -83 65 -38 181 -31 235 14 32 26 76 58 98 69 23 13 65 85 98 168 62
156 89 197 134 204 15 3 66 30 113 62 47 31 107 59 134 62 27 3 90 39 140 81
96 81 110 100 61 81 -41 -16 -37 7 11 64 35 42 56 48 190 49 83 0 156 8 162
18 5 10 -13 12 -41 5 -60 -15 -65 2 -24 100 26 61 39 69 115 76 48 5 94 10
102 12 8 1 15 -5 15 -16z m3150 -115 c-72 -198 -216 -473 -276 -529 -77 -70
-123 -76 -102 -12 12 39 10 41 -17 19 -17 -14 -37 -48 -43 -75 -9 -34 -27 -49
-57 -49 -52 0 -235 -120 -235 -154 0 -53 38 -42 83 24 26 38 72 78 102 89 68
24 69 13 4 -64 -109 -129 -221 -426 -213 -563 1 -21 -7 -55 -17 -75 -23 -43
-29 -201 -11 -298 12 -64 10 -63 -27 21 -21 50 -39 128 -40 175 -1 82 -25 112
-49 60 -6 -14 -9 -9 -7 11 3 20 12 33 21 30 30 -11 60 66 36 90 -12 12 -22 38
-22 58 0 20 -9 36 -20 36 -11 0 -20 -23 -20 -51 0 -27 -13 -55 -30 -62 -16 -6
-25 -19 -19 -29 7 -10 19 -14 28 -9 8 6 7 -28 -3 -75 -10 -46 -18 -101 -18
-123 0 -31 -7 -27 -35 20 -30 49 -31 63 -9 85 31 32 35 84 6 84 -11 0 -20 -18
-20 -40 0 -22 -9 -40 -20 -40 -26 0 -26 -92 1 -141 25 -48 -51 -45 -85 2 -15
22 -16 19 -6 -11 23 -66 44 -250 29 -250 -68 0 -133 206 -106 337 12 65 47 87
47 31 0 -17 11 -28 25 -23 17 6 23 43 18 118 -7 115 48 272 139 400 24 34 45
85 46 114 2 45 10 52 57 47 37 -4 55 4 55 24 0 16 11 34 25 40 20 10 20 14 0
24 -99 46 144 540 246 500 15 -5 61 17 103 49 42 33 94 73 116 90 22 16 74 35
115 42 48 8 91 31 117 64 32 41 44 46 58 23 13 -21 21 -15 31 27 8 30 18 50
24 45 5 -5 -6 -53 -25 -106z m2043 -31 c-7 -25 -13 -61 -13 -81 0 -20 -9 -31
-20 -24 -22 14 -27 116 -7 137 29 28 51 11 40 -32z m107 26 c0 -33 -46 -121
-63 -121 -23 0 -21 55 4 101 21 41 59 53 59 20z m-6078 -132 c72 -49 144 -90
160 -90 15 -1 -12 -13 -62 -27 -49 -13 -110 -31 -135 -40 -49 -16 -67 34 -20
56 25 12 -33 1 -103 -19 -31 -8 -43 5 -63 65 -14 42 -34 82 -46 89 -13 9 -11
25 7 47 38 46 104 26 262 -81z m5890 62 c18 -73 -92 -150 -120 -83 -5 12 -10
-1 -10 -28 -3 -90 -182 -128 -182 -38 0 24 187 107 227 101 25 -4 35 5 32 30
-8 83 33 97 53 18z m-5115 -59 c27 -75 -1 -252 -82 -522 -51 -171 -200 -443
-167 -305 15 63 -7 73 -42 17 -41 -66 37 -119 92 -64 23 23 42 53 42 67 0 14
17 52 37 85 20 33 52 106 70 162 22 66 51 111 84 128 60 33 62 52 6 66 -29 8
-38 22 -30 44 7 18 13 56 13 84 0 43 5 47 30 26 17 -14 27 -30 22 -34 -5 -5
26 -41 68 -79 126 -113 302 -687 212 -687 -15 0 -59 -22 -99 -49 l-73 -50
-125 58 c-165 76 -329 127 -366 114 -15 -7 -28 -5 -26 3 5 37 -5 51 -21 27
-10 -15 -59 -31 -110 -34 -54 -4 -88 2 -81 12 6 11 25 19 42 19 65 0 129 109
258 440 40 105 83 199 94 210 41 41 -2 -142 -67 -280 -65 -141 -100 -252 -58
-190 18 27 22 27 41 0 17 -23 19 -19 8 18 -8 29 -6 42 7 35 24 -16 49 42 31
72 -8 12 -4 15 10 7 13 -8 23 -10 23 -4 0 5 14 62 30 126 17 64 35 175 41 246
24 313 40 357 86 232z m5236 -97 c-7 -25 -13 -52 -13 -60 0 -29 -164 -99 -184
-79 -50 50 74 184 171 184 29 0 35 -10 26 -45z m-6613 -11 c0 -9 -18 -52 -41
-95 -22 -44 -36 -61 -31 -39 6 22 16 65 23 95 12 50 49 79 49 39z m6162 -18
c68 -40 72 -57 21 -85 -43 -23 -103 27 -103 86 0 41 10 41 82 -1z m-63 -84
c18 -33 3 -45 -130 -103 -103 -44 -161 -83 -183 -121 -34 -57 -86 -49 -86 13
0 32 99 116 179 152 34 15 61 34 61 43 0 16 74 51 114 53 14 0 34 -16 45 -37z
m767 -7 c-5 -25 -17 -63 -26 -85 -9 -22 -22 -76 -28 -120 -11 -77 -74 -155
-88 -111 -12 34 -41 25 -134 -44 -80 -59 -116 -115 -74 -115 9 0 28 11 42 25
21 20 24 13 12 -43 l-15 -68 78 47 c42 25 95 58 116 73 80 53 105 -8 26 -64
-25 -18 -75 -53 -111 -79 -77 -55 -42 -85 46 -39 87 45 97 37 84 -72 -7 -58
-4 -100 7 -100 10 0 19 -13 19 -30 0 -16 -9 -30 -20 -30 -11 0 -20 -31 -20
-70 0 -38 -8 -70 -18 -70 -10 0 -14 -18 -8 -40 26 -99 -104 96 -191 285 -49
108 -46 107 -119 60 -123 -79 -147 -125 -68 -125 32 -1 227 -277 285 -405 30
-66 41 -68 89 -15 48 53 98 53 84 0 -6 -22 -2 -45 8 -51 26 -16 2 -49 -35 -49
-20 0 -27 11 -20 30 8 20 -1 30 -28 30 -44 0 -47 -15 -20 -89 15 -38 33 -50
71 -46 32 2 47 13 41 29 -5 14 -1 26 10 26 10 0 19 -18 19 -40 0 -29 -13 -40
-50 -40 -34 0 -50 -11 -51 -35 0 -28 -233 -180 -340 -221 -8 -3 -26 28 -40 70
-13 42 -33 87 -44 101 -12 14 -17 28 -13 31 4 3 44 28 88 56 197 126 230 149
230 164 0 27 -79 -6 -192 -78 -123 -79 -141 -82 -158 -28 -7 22 -50 82 -96
132 -46 51 -84 100 -84 108 0 9 -7 23 -15 32 -8 8 -15 29 -15 47 0 29 -65 101
-92 101 -6 0 12 -43 41 -95 l53 -94 -56 49 c-31 26 -136 129 -234 227 l-178
179 93 86 c93 87 382 237 416 216 10 -6 16 -1 12 11 -3 12 22 37 55 56 33 18
162 100 286 181 282 184 389 224 370 139z m-4417 7 c6 -9 35 -22 66 -28 30 -6
82 -16 115 -23 235 -48 298 -58 440 -70 l160 -14 -72 -32 c-126 -58 -723 71
-753 161 -10 28 27 33 44 6z m3876 -14 c27 -26 -37 -113 -110 -150 -97 -50
-126 -34 -80 45 47 81 155 140 190 105z m-5199 -162 c-32 -65 -76 -144 -99
-177 -23 -32 -54 -94 -69 -137 -55 -154 -357 -335 -437 -263 -43 39 -28 79 66
186 40 45 87 63 63 25 -7 -11 1 -20 18 -20 20 0 26 -11 18 -32 -18 -49 63 -1
134 79 59 65 66 102 10 45 -37 -36 -90 -43 -90 -11 0 12 -9 16 -20 9 -59 -37
-7 35 75 102 52 43 156 135 231 205 161 149 177 147 100 -11z m1299 50 c-34
-34 -50 -39 -68 -21 -18 18 -13 28 25 43 78 31 90 25 43 -22z m92 -88 c-85
-118 -97 -124 -97 -46 0 79 49 138 114 138 l48 0 -65 -92z m3486 20 c-10 -54
-39 -84 -116 -121 -87 -41 -101 -26 -59 61 46 98 191 147 175 60z m-6626 -63
c-7 -99 144 -365 206 -365 11 0 52 -23 93 -51 205 -139 569 -162 699 -43 81
74 71 18 -16 -85 -73 -87 -146 -141 -109 -81 7 11 0 20 -15 20 -47 0 -56 -25
-20 -51 58 -42 -85 -288 -172 -294 -24 -2 -43 -10 -43 -18 0 -59 -398 -49
-493 13 -30 20 -122 71 -206 115 -234 123 -249 180 -113 453 47 95 97 217 112
272 42 161 84 224 77 115z m2965 -20 c-15 -6 -62 -42 -105 -80 -101 -92 -99
-50 3 58 66 68 85 79 105 58 20 -21 19 -28 -3 -36z m-362 -232 c0 -2 -27 -56
-60 -121 -33 -65 -60 -130 -60 -146 0 -83 -39 13 -51 127 -17 161 34 232 125
173 25 -17 46 -32 46 -33z m220 56 c0 -6 -40 -94 -89 -195 -49 -101 -104 -242
-122 -314 -57 -226 -257 -680 -300 -680 -10 0 22 84 61 160 17 32 35 114 40
181 5 67 14 130 21 140 6 10 1 36 -10 58 -18 34 -12 43 49 72 46 22 74 52 82
86 45 206 268 616 268 492z m1060 -242 c0 -27 -67 -87 -97 -87 -22 0 -18 13
17 50 45 48 80 64 80 37z m2539 -232 c98 -102 227 -225 287 -275 118 -97 170
-168 195 -268 9 -34 34 -109 57 -166 l41 -104 -79 -62 c-78 -62 -134 -65 -111
-5 7 17 -6 61 -28 98 -44 75 -36 127 21 127 21 0 38 14 38 30 0 17 -10 30 -22
30 -14 0 -18 19 -10 49 13 52 6 60 -393 446 -132 127 -201 181 -223 173 -38
-15 -41 18 -7 72 36 59 41 56 234 -145z m-6723 90 c-1 -30 5 -75 12 -100 19
-58 -3 -56 -78 6 l-60 50 56 50 c70 61 72 61 70 -6z m2168 16 c226 -57 456
-184 456 -252 0 -43 -27 -35 -92 25 -32 30 -70 56 -85 59 -14 2 -37 17 -50 32
-71 88 -540 159 -743 113 l-109 -24 145 -49 c79 -28 158 -61 174 -75 17 -14
62 -41 100 -59 39 -18 94 -46 123 -62 41 -23 65 -25 101 -8 71 32 156 -6 156
-71 0 -31 -11 -50 -30 -50 -16 0 -30 7 -30 15 0 8 -23 26 -52 39 -43 20 -47
19 -27 -5 83 -100 -117 -123 -286 -32 -58 31 -126 55 -152 53 -26 -2 -52 9
-58 25 -8 20 -29 25 -78 16 -36 -7 -85 -3 -107 9 -42 23 -54 60 -19 60 12 0
16 -8 10 -18 -17 -27 41 -42 67 -16 64 64 -28 103 -106 44 -103 -78 196 -216
576 -265 84 -11 350 25 436 58 59 23 132 -21 106 -63 -29 -46 -255 -120 -246
-80 3 14 -7 30 -22 35 -16 6 -22 1 -14 -11 21 -35 -12 -41 -137 -21 -100 16
-121 14 -136 -13 -23 -41 -147 -21 -206 32 -23 21 -53 38 -67 38 -14 0 -81 32
-148 72 -101 59 -129 68 -160 49 -34 -21 -104 29 -116 84 -2 8 -5 24 -8 35 -3
11 -6 33 -7 48 -4 35 -82 19 -96 -20 -6 -14 -23 -21 -39 -15 -15 6 -28 1 -28
-11 0 -13 13 -28 29 -34 30 -12 34 -88 4 -88 -10 0 -7 -14 7 -30 32 -39 27
-44 -70 -60 -50 -8 -70 -6 -54 5 14 10 20 32 14 49 -8 19 7 43 40 64 43 28 48
40 28 64 -26 32 63 148 115 148 14 0 35 18 47 40 73 137 524 201 844 121z
m556 -41 c0 -22 -9 -40 -20 -40 -11 0 -20 -21 -20 -47 0 -69 -18 -75 -82 -28
-74 55 -73 63 17 112 95 51 105 52 105 3z m-707 -53 c35 -15 69 -27 76 -27 7
0 53 -18 101 -40 49 -22 96 -39 104 -37 40 8 184 -30 174 -45 -5 -10 1 -18 15
-18 18 0 19 -6 4 -21 -30 -30 -130 -30 -185 0 -26 14 -111 42 -189 63 -197 54
-247 76 -261 115 -7 18 -17 44 -23 57 -12 25 53 8 184 -47z m1517 33 c7 -11
-1 -20 -17 -20 -16 0 -33 -11 -38 -24 -4 -12 -18 -17 -30 -9 -13 8 -18 27 -12
44 13 33 78 39 97 9z m2919 -25 c-20 -52 166 -207 213 -178 50 31 71 19 28
-17 -16 -14 -30 -34 -30 -45 0 -11 13 -9 30 5 25 21 30 18 30 -19 0 -25 20
-61 45 -82 49 -41 85 -51 65 -19 -7 11 -3 20 9 20 25 0 27 -20 4 -56 -19 -30
-416 151 -409 187 2 12 -15 21 -38 20 -68 -2 -80 72 -23 146 50 63 94 85 76
38z m-1699 -390 c-6 -25 -20 -45 -30 -45 -23 0 -27 266 -5 288 20 20 50 -185
35 -243z m-2149 176 c35 22 79 25 79 4 0 -15 -155 -85 -187 -85 -9 0 -2 14 16
32 17 17 25 42 17 55 -10 17 -6 17 16 -1 19 -15 40 -17 59 -5z m-1231 -106
c193 -265 794 -354 1176 -175 110 52 123 47 93 -32 -70 -186 -351 -289 -673
-249 -470 60 -665 181 -682 424 -10 138 5 143 86 32z m3532 -599 c71 -57 158
-169 158 -203 0 -68 -159 55 -218 168 -65 123 -56 128 60 35z m408 -96 c41 6
27 -31 -20 -53 -55 -26 -90 1 -52 39 12 12 23 40 24 63 2 37 3 37 15 -5 7 -26
22 -45 33 -44z"/>
<path d="M2585 4675 c-28 -36 -44 -113 -25 -125 9 -5 23 15 31 45 21 75 26
105 20 105 -4 0 -15 -11 -26 -25z"/>
<path d="M2475 4500 c-32 -30 -33 -41 -8 -99 20 -49 30 -57 39 -33 7 18 4 32
-7 32 -22 0 -17 44 8 62 9 7 14 26 10 42 -6 26 -12 25 -42 -4z"/>
<path d="M3460 4310 c-20 -24 -19 -32 7 -42 42 -16 74 7 60 43 -14 37 -36 37
-67 -1z"/>
<path d="M2789 4273 c-19 -40 -17 -45 20 -41 22 3 48 5 56 6 8 1 15 20 15 42
0 56 -65 51 -91 -7z"/>
<path d="M3100 4260 c-12 -22 -34 -40 -50 -40 -27 0 -90 -73 -90 -104 0 -31
31 -15 106 54 42 39 85 70 95 70 11 0 19 14 19 30 0 44 -55 37 -80 -10z"/>
<path d="M2620 4185 c1 -53 39 -71 103 -50 l67 22 -70 -4 c-47 -2 -68 5 -65
22 3 14 -4 25 -15 25 -11 0 -20 -7 -20 -15z"/>
<path d="M3200 4120 c-16 -9 -46 -22 -65 -28 -41 -13 -48 -72 -8 -72 14 0 50
27 80 60 53 60 51 74 -7 40z"/>
<path d="M3505 3935 c-61 -20 -90 -55 -44 -55 12 0 16 -9 9 -20 -17 -28 2 -25
70 10 38 20 55 41 47 60 -6 17 -13 29 -14 28 -2 -1 -32 -11 -68 -23z"/>
<path d="M3357 3801 c-39 -33 -41 -40 -12 -40 19 -1 35 8 35 19 0 11 14 20 30
20 17 0 30 9 30 20 0 31 -31 24 -83 -19z"/>
<path d="M7001 5192 c-17 -21 -17 -32 -1 -42 13 -8 25 -11 27 -7 2 4 16 23 31
42 34 45 -20 51 -57 7z"/>
<path d="M3780 5103 c0 -42 25 -83 51 -83 20 0 23 12 11 44 -16 46 -62 74 -62
39z"/>
<path d="M2980 4894 c0 -33 61 -133 93 -150 46 -26 167 13 153 49 -9 23 -15
22 -35 -5 -37 -50 -124 -20 -172 58 -21 35 -39 57 -39 48z"/>
<path d="M3700 4653 c0 -36 155 -177 169 -154 7 11 -6 29 -28 41 -22 11 -54
48 -71 81 -32 61 -70 79 -70 32z"/>
<path d="M6340 4212 c0 -19 9 -95 19 -168 11 -74 23 -191 28 -261 5 -69 18
-136 31 -149 36 -36 27 192 -17 403 -37 180 -61 248 -61 175z"/>
<path d="M6255 4160 c-8 -27 -15 -90 -17 -140 -2 -90 -2 -90 -20 -25 -11 36
-21 65 -24 65 -9 0 6 -507 16 -517 22 -22 31 18 38 159 4 81 13 162 20 180 8
17 11 98 8 180 -4 103 -11 133 -21 98z"/>
<path d="M5659 2246 c-71 -166 -69 -170 10 -36 73 124 82 150 55 150 -9 0 -39
-51 -65 -114z"/>
<path d="M5514 1975 c-89 -141 -107 -177 -50 -106 59 75 142 211 128 211 -6 0
-41 -47 -78 -105z"/>
<path d="M1176 3145 c-32 -36 -45 -165 -17 -165 8 0 11 -25 7 -55 -7 -43 -4
-48 12 -25 13 19 22 21 22 6 0 -13 -16 -33 -35 -45 -31 -18 -31 -23 -5 -40 28
-19 13 -30 -29 -22 -29 6 -117 -45 -152 -86 -28 -34 -33 -34 -57 -5 -22 26
-21 33 6 44 17 7 27 21 20 31 -14 23 -80 -60 -118 -150 -27 -66 -27 -68 11
-59 27 8 39 28 39 69 l0 59 49 -36 c28 -20 46 -48 41 -62 -5 -14 4 -31 20 -37
17 -6 30 -33 30 -59 0 -51 47 -66 73 -23 30 48 20 99 -26 129 -69 45 -57 68
28 55 69 -11 82 -5 162 78 l87 89 -64 172 c-36 95 -67 172 -70 172 -2 0 -18
-16 -34 -35z"/>
<path d="M5933 2425 c-18 -30 -89 -225 -82 -225 13 0 73 123 90 184 16 54 12
73 -8 41z"/>
<path d="M5417 3075 c-163 -144 -277 -187 -431 -160 -180 31 -336 97 -362 153
-14 33 -37 45 -82 45 -47 0 -56 -6 -41 -25 24 -28 -8 -58 -41 -38 -25 15 -26
-30 -1 -69 16 -25 23 -25 53 0 32 27 34 25 21 -25 -11 -44 -7 -53 17 -43 19 7
30 0 30 -21 0 -19 17 -32 40 -32 22 0 40 -12 40 -26 0 -25 -27 -32 -155 -38
-43 -1 -68 -14 -76 -40 -7 -20 -19 -32 -28 -27 -9 6 -28 -4 -43 -22 -24 -28
-31 -23 -61 46 -25 57 -34 66 -36 34 0 -23 -16 -48 -34 -55 -30 -12 -29 -16 5
-42 40 -30 -100 -32 -149 -2 -10 6 -24 -3 -31 -20 -8 -22 -29 -29 -62 -23 -27
5 -44 2 -39 -6 5 -9 -11 -23 -36 -30 -109 -35 -295 -133 -295 -155 0 -14 -37
-43 -83 -65 -46 -21 -80 -44 -75 -50 4 -7 -8 -28 -28 -48 -70 -70 -15 -49 380
149 457 228 519 245 417 109 -32 -42 -41 -109 -15 -109 9 0 36 45 60 100 30
68 58 102 89 109 25 5 166 33 313 61 147 29 296 64 330 78 35 14 107 33 160
41 54 8 114 25 134 37 30 19 43 16 67 -16 23 -32 30 -33 30 -9 1 17 -8 40 -20
52 -20 20 37 73 121 111 24 10 23 13 -6 15 -20 0 -79 -27 -130 -60 -52 -34
-71 -43 -44 -19 133 115 180 163 180 180 0 28 -2 27 -83 -45z"/>
<path d="M3900 3001 c0 -22 65 -61 102 -61 15 0 11 15 -12 40 -38 42 -90 54
-90 21z"/>
<path d="M4262 2976 c-2 -29 47 -96 69 -96 5 0 9 18 9 40 0 22 -13 40 -28 40
-16 0 -33 11 -39 25 -6 15 -10 12 -11 -9z"/>
<path d="M3520 2598 c-24 -16 -21 -18 13 -9 32 9 45 1 55 -33 10 -38 15 -41
32 -16 33 51 -45 97 -100 58z"/>
<path d="M2581 2308 c20 -53 66 -108 90 -108 7 0 -1 23 -19 50 -18 28 -27 50
-20 50 7 0 2 14 -12 30 -39 47 -61 35 -39 -22z"/>
<path d="M2090 2314 c-22 -13 -44 -26 -48 -29 -12 -7 86 -145 103 -145 24 0
17 24 -19 64 -47 53 6 112 70 78 73 -39 96 -23 29 18 -75 46 -81 46 -135 14z"/>
<path d="M5511 2389 c-31 -28 -51 -56 -45 -62 16 -16 113 59 113 88 1 35 -5
32 -68 -26z"/>
<path d="M5229 2200 c-224 -111 -387 -315 -354 -442 9 -36 165 61 165 103 0 8
80 78 178 156 288 230 293 323 11 183z m-54 -119 c-34 -48 -215 -210 -215
-192 0 37 67 134 125 179 81 64 131 71 90 13z"/>
<path d="M4748 1495 c-93 -120 -136 -196 -167 -293 -30 -97 -26 -113 19 -72
25 23 36 51 29 78 -11 44 134 227 172 217 11 -3 19 12 19 33 0 20 14 48 30 62
17 14 30 37 30 52 0 56 -53 25 -132 -77z"/>
<path d="M7727 1946 c-7 -20 -16 -41 -19 -48 -10 -19 91 4 103 23 6 10 -8 27
-31 39 -33 18 -43 15 -53 -14z"/>
<path d="M7482 1645 c-1 -30 -15 -45 -41 -45 -21 0 -44 -9 -52 -21 -7 -11 -30
-15 -51 -8 -31 9 -38 2 -38 -40 0 -64 -45 -84 -114 -53 -61 28 -82 15 -46 -28
21 -26 17 -30 -28 -30 -28 0 -52 -10 -52 -21 0 -12 16 -20 35 -17 44 5 149
-37 168 -67 10 -17 29 -15 71 5 42 20 48 29 23 34 -55 13 -58 99 -5 163 19 23
64 -58 54 -96 -11 -43 -11 -44 66 -11 112 46 120 63 50 99 -76 39 -76 43 -9
42 64 -1 88 47 30 62 -22 6 -45 26 -50 44 -6 22 -9 18 -11 -12z"/>
<path d="M7111 1581 c-7 -12 -11 -22 -7 -22 72 -18 98 -16 91 6 -11 32 -67 43
-84 16z"/>
<path d="M629 1434 c-7 -18 -25 -27 -41 -21 -35 14 -38 -26 -3 -40 14 -6 3 -9
-25 -7 -31 3 -48 -6 -45 -21 3 -14 -4 -25 -15 -25 -11 0 -20 14 -20 30 0 17 9
30 20 30 11 0 20 14 20 31 0 27 -7 27 -59 -4 -48 -28 -58 -45 -50 -86 l10 -51
-24 50 c-21 44 -24 46 -32 12 -6 -27 -13 -31 -24 -13 -11 17 -22 6 -36 -33
-20 -59 25 -82 85 -43 11 7 54 20 95 27 41 8 75 22 75 32 0 10 11 18 24 18 19
0 19 -5 0 -24 -13 -13 -24 -40 -24 -60 0 -20 -10 -36 -21 -36 -12 0 -16 -9 -9
-20 7 -11 2 -20 -11 -20 -13 0 -18 -13 -12 -29 6 -15 0 -33 -13 -38 -16 -7
-17 -16 -4 -26 11 -10 21 -28 22 -42 5 -63 13 -71 26 -25 10 37 36 55 108 76
146 41 169 92 103 231 -62 131 -102 173 -120 127z"/>
<path d="M835 1065 c-47 -11 -44 -59 4 -75 22 -7 59 -36 82 -65 34 -45 47 -49
75 -29 19 13 68 44 109 69 77 47 107 127 40 108 -95 -27 -160 -32 -215 -17
-33 9 -76 13 -95 9z"/>
<path d="M1831 581 c-18 -29 22 -43 82 -28 50 12 52 15 16 29 -55 21 -85 21
-98 -1z"/>
<path d="M2450 536 c-56 -66 -42 -95 26 -58 42 22 71 96 44 112 -9 6 -41 -19
-70 -54z"/>
<path d="M2002 538 c16 -10 43 -18 62 -18 24 0 31 -11 23 -35 -10 -28 -6 -28
20 5 26 32 36 35 50 13 29 -44 211 -42 219 2 6 30 -11 35 -130 37 -75 1 -166
5 -204 8 -44 4 -58 0 -40 -12z"/>
<path d="M5289 7979 c-43 -69 54 -92 125 -30 l56 50 -84 0 c-46 1 -89 -8 -97
-20z"/>
<path d="M5591 7925 c-28 -41 -51 -86 -51 -100 0 -29 32 -34 49 -7 6 10 27 14
47 9 52 -14 93 79 59 134 -34 54 -46 50 -104 -36z"/>
<path d="M6450 7929 c-88 -37 -174 -76 -191 -86 -18 -10 -101 -48 -185 -83
-85 -35 -154 -72 -154 -81 0 -10 -12 -13 -27 -7 -17 6 -32 -6 -38 -31 -23 -85
105 -49 478 135 196 97 380 187 407 199 140 63 -139 19 -290 -46z"/>
<path d="M6780 7945 c-48 -49 -551 -305 -599 -305 -13 0 -17 -11 -9 -23 10
-16 4 -20 -17 -12 -18 7 -43 0 -56 -16 -79 -95 361 70 511 191 11 9 110 62
220 118 l200 101 -100 -2 c-79 -1 -110 -12 -150 -52z"/>
<path d="M7280 7970 c-111 -64 -391 -208 -405 -209 -8 0 -60 -31 -115 -69 -55
-38 -126 -74 -157 -81 -32 -7 -78 -34 -102 -60 -25 -26 -71 -59 -103 -72 -81
-33 -86 -130 -6 -110 29 7 66 26 82 42 16 16 50 29 75 29 26 0 52 13 58 30 7
17 25 24 43 17 19 -7 43 3 60 25 26 36 30 36 62 4 41 -41 -5 -135 -67 -137
-38 0 -105 -44 -105 -68 0 -8 25 -11 55 -8 30 3 66 -2 80 -10 14 -9 50 -13 80
-10 30 3 66 -1 80 -10 18 -11 25 0 25 37 0 29 -8 47 -19 41 -10 -6 -25 -1 -33
12 -10 16 1 19 37 10 36 -9 54 -4 63 18 9 25 20 26 54 8 24 -13 73 -23 110
-23 77 0 96 -49 23 -60 -25 -4 -43 -19 -39 -33 3 -18 -8 -22 -35 -13 -24 7
-41 4 -41 -9 0 -21 26 -29 75 -22 29 3 32 -18 7 -57 -10 -15 -28 -21 -40 -13
-12 7 -22 4 -22 -8 0 -12 28 -28 62 -34 34 -7 66 -25 72 -41 6 -16 24 -24 39
-18 17 7 27 -3 27 -29 0 -43 56 -54 70 -14 4 14 18 147 30 295 11 149 28 331
37 406 8 75 9 140 2 145 -24 15 -96 -62 -110 -117 -18 -74 -120 -133 -213
-124 -162 15 -143 62 74 181 22 12 82 45 133 74 51 29 98 47 103 42 6 -6 21 8
33 31 28 52 -57 59 -139 12z"/>
<path d="M887 7900 c-67 -32 -134 -70 -150 -85 -15 -14 -63 -48 -107 -75 -80
-49 -107 -68 -159 -115 -16 -14 -37 -25 -49 -25 -11 0 -44 -22 -74 -50 -30
-27 -64 -50 -76 -50 -37 0 -143 -95 -126 -113 9 -9 24 -4 33 11 9 16 31 22 48
16 21 -8 28 -3 20 17 -8 20 -2 26 19 18 17 -7 48 5 68 25 23 23 72 40 126 43
105 6 135 23 42 23 -39 0 -59 8 -52 21 7 11 24 18 37 15 29 -6 193 88 193 112
0 30 99 111 151 124 27 7 49 19 49 28 0 9 31 21 69 29 74 13 107 43 78 72 -10
10 -70 -7 -140 -41z"/>
<path d="M4400 7930 c0 -21 21 -30 70 -30 72 0 94 27 38 48 -56 21 -108 13
-108 -18z"/>
<path d="M3280 7760 c0 -23 42 -23 130 0 54 14 50 16 -35 18 -52 1 -95 -7 -95
-18z"/>
<path d="M3593 7750 c6 -16 35 -31 64 -33 47 -2 48 -3 8 -11 -47 -9 -53 -22
-33 -74 15 -40 128 -44 128 -5 0 15 35 43 79 62 43 20 83 48 89 64 13 34 -17
35 -52 1 -37 -36 -116 -38 -116 -3 0 21 -25 29 -89 29 -72 0 -87 -6 -78 -30z"/>
<path d="M2212 7647 c-29 -29 -49 -56 -45 -61 16 -16 73 20 73 46 0 22 10 23
51 4 42 -19 55 -18 69 5 45 72 -77 77 -148 6z"/>
<path d="M2700 7650 c-14 -16 -37 -30 -51 -30 -40 0 -58 -42 -27 -61 15 -9 79
-17 142 -16 63 0 125 -6 138 -14 60 -37 -20 53 -88 100 -89 60 -83 59 -114 21z"/>
<path d="M4953 7667 c-25 -25 -13 -45 41 -71 30 -14 52 -34 49 -44 -4 -10 8
-27 26 -37 26 -14 28 -25 10 -46 -18 -22 -11 -30 34 -39 31 -7 87 -25 123 -41
77 -34 124 -37 124 -8 0 27 -102 118 -133 118 -13 1 -27 8 -30 16 -10 22 -132
105 -154 105 -10 0 -24 14 -30 30 -12 32 -38 39 -60 17z"/>
<path d="M1305 7629 c-70 -35 -76 -49 -23 -49 26 1 71 18 98 39 59 46 8 52
-75 10z"/>
<path d="M3352 7591 c16 -74 64 -171 84 -170 39 1 87 60 81 101 -8 52 -97 72
-97 21 0 -41 -12 -23 -27 41 -10 40 -5 55 22 62 19 5 10 9 -21 7 -51 -2 -54
-7 -42 -62z"/>
<path d="M4680 7646 c0 -23 135 -92 195 -99 48 -5 78 23 45 43 -11 7 -20 4
-20 -6 0 -21 -155 27 -195 60 -14 12 -25 13 -25 2z"/>
<path d="M3234 7612 c-7 -17 -4 -36 7 -43 32 -19 21 -44 -26 -59 -52 -17 -75
-17 -185 0 -78 12 -79 11 -29 -17 28 -17 91 -36 140 -43 49 -7 107 -24 129
-37 74 -46 115 -20 79 48 -36 70 -57 78 -38 14 8 -25 7 -39 -1 -31 -9 8 -18
48 -21 88 -7 83 -37 127 -55 80z"/>
<path d="M4054 7616 c-31 -23 -26 -27 37 -31 51 -4 70 2 64 20 -12 35 -60 41
-101 11z"/>
<path d="M2350 7564 c-52 -28 -55 -33 -21 -40 22 -5 43 1 47 14 4 12 25 22 47
22 22 0 34 9 27 20 -15 25 -26 23 -100 -16z"/>
<path d="M3540 7561 c0 -37 45 -45 76 -13 30 29 28 32 -22 32 -30 0 -54 -8
-54 -19z"/>
<path d="M1095 7523 l-56 -36 70 -38 c38 -20 76 -31 84 -23 7 8 3 14 -11 14
-13 0 -19 9 -12 19 6 11 38 14 70 8 32 -6 75 -5 94 4 20 8 52 13 71 11 46 -6
45 51 -1 63 -19 5 -47 -4 -61 -19 -23 -24 -33 -24 -74 3 -62 40 -106 39 -174
-6z"/>
<path d="M2040 7524 c0 -18 14 -22 45 -13 74 22 83 45 17 42 -37 -2 -62 -13
-62 -29z"/>
<path d="M4660 7519 c0 -23 -7 -37 -17 -31 -9 6 -16 -3 -16 -19 0 -22 6 -23
27 -6 32 27 134 -54 112 -89 -7 -11 -2 -14 11 -6 13 8 23 4 23 -8 0 -12 9 -17
19 -11 23 15 79 -89 67 -122 -6 -17 17 -21 77 -14 155 18 156 50 4 153 -84 56
-118 70 -137 54 -18 -15 -30 -16 -39 -1 -8 12 -4 21 8 21 40 0 20 30 -49 75
-85 55 -90 55 -90 4z"/>
<path d="M1471 7461 c-7 -10 3 -27 21 -37 23 -13 26 -23 11 -32 -27 -17 -31
-72 -5 -72 24 0 41 71 28 120 -11 43 -36 52 -55 21z"/>
<path d="M2195 7466 c-19 -5 -35 -17 -35 -27 0 -11 -14 -19 -31 -19 -17 0 -26
-8 -20 -18 17 -28 90 -2 112 40 11 21 18 37 15 36 -3 -2 -22 -7 -41 -12z"/>
<path d="M915 7406 c-41 -28 -75 -59 -75 -69 0 -9 -15 -17 -32 -17 -18 0 -76
-37 -130 -82 -54 -45 -98 -74 -98 -65 0 9 -7 8 -15 -3 -17 -23 -157 -102 -345
-196 -72 -35 -133 -71 -137 -79 -3 -8 -24 -15 -45 -15 -24 0 -38 -14 -38 -39
0 -50 14 -46 283 75 74 33 139 55 145 49 7 -6 12 -1 12 13 0 55 112 126 174
109 26 -6 45 1 52 21 7 18 25 26 43 20 37 -15 42 23 6 40 -14 7 -1 8 29 2 29
-6 59 -1 66 10 7 11 -1 20 -16 20 -48 0 -81 53 -43 68 56 21 75 14 49 -18 -34
-41 6 -40 70 2 26 17 78 36 114 41 94 15 187 107 108 107 -15 0 -38 14 -52 30
-32 38 -35 38 -125 -24z"/>
<path d="M1360 7444 c0 -11 -18 -24 -40 -30 -54 -14 -51 -67 5 -79 25 -5 61
-16 80 -25 21 -8 35 -5 35 8 0 12 -17 22 -39 22 -55 0 -71 38 -30 68 24 18 28
30 12 40 -13 8 -23 6 -23 -4z"/>
<path d="M3671 7442 c-16 -26 18 -45 57 -30 21 8 32 1 32 -20 0 -21 17 -32 50
-32 62 0 62 7 5 45 -66 43 -130 59 -144 37z"/>
<path d="M3995 7444 c-60 -7 -77 -44 -20 -44 37 1 100 33 84 44 -5 4 -34 4
-64 0z"/>
<path d="M5421 7327 c-22 -16 -41 -41 -41 -56 0 -14 -14 -37 -30 -51 -17 -14
-26 -30 -21 -36 6 -6 38 18 71 53 33 35 73 63 89 63 45 0 55 34 12 46 -21 5
-57 -3 -80 -19z"/>
<path d="M1920 7312 c-27 -15 -77 -38 -109 -51 -47 -19 -53 -28 -30 -42 40
-26 59 -23 59 7 0 28 132 85 180 77 27 -4 27 -2 0 16 -38 26 -40 26 -100 -7z"/>
<path d="M1501 7304 c-39 -13 -21 -58 33 -82 39 -18 57 -19 62 -3 4 12 20 34
36 50 15 15 28 32 28 36 0 9 -130 8 -159 -1z"/>
<path d="M3407 7270 c4 -22 16 -57 24 -78 10 -24 8 -34 -4 -26 -11 7 -20 -1
-20 -17 0 -16 12 -29 27 -29 19 0 23 -15 14 -50 -11 -46 16 -72 37 -35 5 8 6
4 3 -9 -4 -14 3 -31 15 -38 28 -17 5 -126 -36 -172 -43 -47 -24 -63 78 -70 46
-3 92 -15 104 -27 15 -15 11 -18 -12 -9 -18 7 -38 5 -44 -5 -6 -9 16 -27 48
-39 33 -13 59 -20 59 -17 0 11 -63 158 -133 311 -100 219 -171 356 -160 310z"/>
<path d="M3504 7235 c12 -36 29 -74 37 -85 8 -11 39 -78 68 -150 144 -348 174
-400 229 -398 29 0 41 6 27 11 -14 6 -25 26 -25 45 0 19 -10 44 -22 56 -15 15
-15 25 0 35 12 7 22 6 22 -4 0 -9 29 -15 65 -13 36 2 123 5 193 6 71 1 122 9
114 17 -24 24 -451 38 -460 15 -4 -11 -14 -3 -23 17 -9 22 -5 43 9 52 33 20 4
86 -33 72 -21 -8 -26 -2 -17 20 21 55 -8 134 -39 108 -27 -22 -49 43 -56 170
-2 32 -12 48 -28 42 -14 -5 -25 3 -25 20 0 16 -13 29 -29 29 -24 0 -25 -12 -7
-65z"/>
<path d="M4002 7225 c162 -113 319 -189 346 -168 12 11 36 23 52 28 17 6 6 7
-24 3 -49 -6 -248 88 -378 179 -26 18 -60 33 -76 33 -16 0 20 -34 80 -75z"/>
<path d="M1075 7242 c-40 -40 -28 -62 33 -62 30 1 34 5 16 17 -14 9 -20 31
-13 50 16 41 9 40 -36 -5z"/>
<path d="M5519 7230 c-97 -50 -153 -102 -132 -124 17 -16 94 25 177 95 88 73
67 86 -45 29z"/>
<path d="M4560 7225 c0 -16 64 -64 115 -85 25 -11 45 -33 45 -50 0 -33 35 -39
78 -11 22 13 6 28 -65 61 -51 25 -93 51 -93 60 0 8 -18 20 -40 26 -22 6 -40 5
-40 -1z"/>
<path d="M2580 7198 c0 -12 19 -27 41 -33 25 -6 37 -21 31 -38 -6 -15 2 -27
19 -27 38 0 37 49 -2 89 -37 36 -89 41 -89 9z"/>
<path d="M4820 7170 c76 -56 80 -58 80 -31 0 19 -102 81 -133 81 -8 0 16 -22
53 -50z"/>
<path d="M1768 7168 c10 -25 4 -29 -23 -18 -91 38 -116 39 -88 3 16 -18 36
-33 47 -33 10 0 93 -44 184 -98 217 -128 235 -132 326 -82 l76 41 -85 -6 c-47
-3 -85 0 -85 7 0 8 -11 12 -25 11 -14 -2 -26 6 -28 17 -4 23 -141 86 -192 89
-19 0 -35 11 -35 22 0 24 -49 79 -71 79 -7 0 -8 -15 -1 -32z"/>
<path d="M5051 7170 c-52 -40 -28 -58 58 -41 75 14 92 39 39 59 -43 17 -53 15
-97 -18z"/>
<path d="M5176 7093 c-14 -20 -48 -46 -76 -56 -54 -21 -41 -37 58 -67 39 -12
46 -9 36 18 -9 22 -2 32 22 33 29 0 144 83 144 104 0 27 -162 -1 -184 -32z"/>
<path d="M1300 7103 c0 -9 6 -22 13 -30 8 -7 16 -47 18 -88 6 -119 31 -222 59
-245 37 -31 59 11 53 102 -5 59 2 75 36 83 56 15 51 38 -19 85 -33 22 -65 56
-71 75 -12 35 -89 51 -89 18z"/>
<path d="M1560 7102 c0 -9 13 -28 30 -42 16 -13 25 -31 20 -40 -5 -8 52 -42
126 -75 187 -84 209 -90 226 -62 20 32 -113 103 -164 87 -26 -9 -38 -3 -38 18
0 18 -36 54 -80 82 -83 52 -120 62 -120 32z"/>
<path d="M4944 7097 c5 -15 30 -30 55 -34 31 -4 43 2 37 20 -5 15 -30 30 -55
34 -31 4 -43 -2 -37 -20z"/>
<path d="M4856 7022 c-31 -31 -27 -37 65 -89 94 -53 128 -51 74 4 -20 21 -14
21 31 4 79 -29 85 -27 44 19 -38 42 -110 55 -110 20 0 -11 -13 -20 -30 -20
-16 0 -30 9 -30 20 0 11 9 20 20 20 29 0 25 34 -5 45 -14 5 -40 -5 -59 -23z"/>
<path d="M2300 7012 c0 -36 89 -46 110 -12 7 11 -1 20 -17 20 -16 0 -44 5 -61
12 -21 8 -32 1 -32 -20z"/>
<path d="M2731 7021 c-7 -11 -31 -21 -52 -21 -34 0 -36 -6 -16 -38 23 -37 26
-36 63 11 21 27 34 54 28 59 -5 6 -16 1 -23 -11z"/>
<path d="M4455 7026 c-19 -5 -35 -18 -35 -29 0 -28 85 -12 95 18 9 26 1 27
-60 11z"/>
<path d="M1616 6878 c33 -34 83 -63 110 -65 60 -4 50 -32 -12 -34 -42 -2 -42
-2 -4 -18 22 -9 65 -12 96 -6 40 7 54 3 50 -16 -4 -16 13 -27 43 -27 102 -2
56 82 -69 126 -44 15 -115 44 -159 65 -111 52 -125 46 -55 -25z"/>
<path d="M4811 6901 c-7 -11 -33 -19 -57 -17 -24 1 -106 -26 -181 -62 -76 -36
-163 -66 -195 -66 -64 -2 -127 -56 -83 -71 14 -5 39 -22 56 -39 36 -36 117
-10 196 63 30 28 76 45 123 47 49 2 90 18 116 45 29 32 57 41 106 35 64 -8 66
-6 40 33 -30 46 -101 65 -121 32z"/>
<path d="M7971 6902 c-6 -10 -89 -65 -186 -122 -175 -105 -210 -135 -193 -163
15 -25 196 39 231 83 38 46 97 11 97 -58 0 -19 7 -42 15 -50 8 -8 25 -84 37
-168 22 -153 22 -151 25 171 3 310 0 348 -26 307z"/>
<path d="M2191 6883 c-57 -13 -54 -16 80 -77 186 -85 349 -105 384 -47 29 47
15 54 -27 12 -19 -19 -52 -25 -103 -17 -94 15 -97 17 -57 56 17 18 31 43 30
56 -1 17 -4 17 -11 -1 -6 -14 -23 -25 -38 -25 -18 0 -23 12 -15 33 10 27 5 31
-26 18 -76 -31 -108 -35 -108 -13 0 24 -17 24 -109 5z"/>
<path d="M2767 6868 c-7 -17 1 -44 17 -61 42 -42 95 16 56 63 -32 39 -58 38
-73 -2z"/>
<path d="M5192 6852 c8 -22 -1 -27 -35 -19 l-47 10 47 -41 c50 -44 103 -55
103 -22 0 29 62 24 98 -8 33 -28 332 -192 351 -192 35 0 0 39 -64 72 -41 21
-109 58 -150 83 -41 25 -85 45 -98 45 -14 0 -43 17 -66 37 -55 50 -154 75
-139 35z"/>
<path d="M2854 6780 c-6 -22 -4 -37 3 -33 7 5 31 1 53 -8 35 -14 34 -16 -14
-18 -29 0 -59 -10 -66 -21 -7 -12 37 -18 114 -17 103 2 119 6 88 24 -20 13
-62 43 -93 68 -67 55 -72 55 -85 5z"/>
<path d="M3290 6772 c-21 -15 -50 -23 -64 -18 -14 6 -26 1 -26 -11 0 -26 121
-25 155 2 56 44 -6 70 -65 27z"/>
<path d="M6351 6781 c-16 -26 17 -73 72 -103 50 -26 45 0 -11 69 -31 38 -52
50 -61 34z"/>
<path d="M5000 6741 c-34 -26 -68 -35 -110 -27 -57 10 -58 9 -20 -19 42 -32
190 -79 190 -62 0 6 35 -17 78 -51 43 -34 93 -62 111 -62 82 0 109 -36 100
-133 -9 -89 -7 -92 28 -60 20 18 45 33 55 33 10 0 54 31 98 70 85 74 77 109
-25 110 -25 0 -45 9 -45 20 0 11 -17 20 -39 20 -21 0 -44 -9 -51 -20 -25 -41
-49 -18 -38 37 13 63 -74 109 -119 64 -23 -23 -93 -29 -93 -8 0 7 15 24 34 38
29 21 30 30 8 57 -36 43 -101 40 -162 -7z"/>
<path d="M5289 6741 c14 -22 347 -201 374 -201 44 0 -11 39 -157 112 -197 98
-231 112 -217 89z"/>
<path d="M648 6692 c-45 -23 -112 -54 -150 -68 -196 -75 -488 -236 -495 -274
-6 -32 -2 -35 19 -15 14 14 38 25 53 25 31 0 118 38 445 195 265 127 257 122
222 144 -22 13 -22 18 1 27 15 6 18 10 7 10 -11 -1 -57 -20 -102 -44z"/>
<path d="M6060 6731 c0 -5 29 -40 65 -77 102 -105 144 -161 156 -204 8 -29 25
-38 60 -33 61 9 57 3 63 79 5 67 81 96 102 39 5 -14 15 -19 24 -11 44 42 -12
77 -108 68 -88 -8 -100 -4 -110 35 -14 56 -89 89 -158 71 -40 -11 -54 -7 -54
14 0 15 -9 28 -20 28 -11 0 -20 -4 -20 -9z"/>
<path d="M5984 6640 c1 -33 9 -60 18 -60 22 0 43 75 28 100 -24 39 -47 19 -46
-40z"/>
<path d="M2560 6654 c0 -20 202 -115 221 -103 11 7 18 3 14 -8 -7 -29 183
-122 220 -108 44 16 -23 64 -72 51 -20 -5 -48 5 -62 23 -14 17 -18 31 -8 31 9
0 4 10 -13 21 -22 15 14 19 126 15 86 -4 162 -16 170 -26 18 -25 84 -31 84 -8
0 10 7 17 15 16 52 -9 75 3 45 22 -24 16 -21 19 16 20 26 0 41 -9 34 -20 -7
-11 2 -20 19 -20 17 0 31 -11 31 -25 1 -17 5 -18 15 -3 22 33 149 16 171 -23
15 -28 22 -29 36 -6 13 20 17 17 18 -14 0 -22 14 -60 31 -85 37 -52 20 -92
-33 -78 -21 6 -33 2 -27 -8 16 -25 -46 -83 -72 -68 -11 8 -35 2 -52 -12 -26
-22 -36 -19 -64 16 -18 23 -53 48 -78 55 -25 8 -45 22 -45 33 0 10 -16 8 -36
-4 -29 -18 -50 -16 -95 9 -33 17 -45 32 -29 33 51 1 -21 39 -76 40 -71 0 -42
-24 180 -155 299 -174 277 -165 340 -133 67 35 74 56 11 37 -96 -31 -103 -30
-50 0 30 18 55 42 55 53 0 11 8 16 17 10 9 -6 49 0 89 12 81 25 140 -3 130
-63 -3 -18 6 -46 19 -62 172 -201 177 -193 49 81 -38 82 -90 200 -115 260 -39
96 -54 112 -112 123 -37 8 -101 26 -142 42 -58 21 -107 24 -210 10 -138 -18
-555 -9 -690 16 -41 7 -75 9 -75 3z"/>
<path d="M4080 6609 c-48 -19 -57 -27 -29 -28 23 0 59 -17 80 -36 48 -43 162
-41 207 4 44 45 -4 76 -93 61 -39 -7 -65 -3 -65 9 0 25 -9 24 -100 -10z"/>
<path d="M4620 6568 c-59 -32 -100 -36 -100 -8 0 26 -54 26 -70 0 -7 -11 4
-26 24 -34 20 -7 41 -19 46 -27 19 -26 311 -156 446 -199 60 -19 171 7 114 26
-82 29 -297 91 -353 103 -86 18 -106 71 -28 71 71 0 97 32 41 50 -22 7 -40 21
-40 31 0 24 -18 21 -80 -13z"/>
<path d="M1480 6562 c0 -26 46 -57 86 -56 22 0 32 11 25 29 -6 16 -11 32 -11
37 0 4 -22 8 -50 8 -27 0 -50 -8 -50 -18z"/>
<path d="M5819 6543 l49 -39 -57 11 c-48 9 -55 5 -45 -22 10 -26 0 -33 -44
-33 -33 0 -63 -13 -69 -30 -9 -24 5 -30 68 -30 44 0 79 10 79 22 0 25 103 6
120 -22 47 -77 208 -55 196 26 -5 39 -16 43 -91 37 -64 -5 -85 1 -85 23 0 38
-36 65 -110 82 l-60 13 49 -38z"/>
<path d="M615 6503 c-57 -27 -69 -41 -51 -59 13 -13 18 -28 12 -35 -6 -6 -24
2 -40 18 -25 25 -62 12 -282 -94 -225 -109 -330 -180 -211 -142 28 9 38 6 28
-9 -7 -12 -26 -22 -42 -22 -20 0 -29 -22 -29 -68 l0 -68 91 27 c50 15 100 34
113 41 14 9 17 5 7 -11 -11 -17 -2 -22 32 -18 26 4 47 21 47 37 0 19 113 87
298 180 275 139 293 151 245 169 -29 10 -53 30 -53 45 0 14 -8 26 -18 26 -10
0 -31 4 -45 9 -15 6 -61 -6 -102 -26z m113 5 c44 -17 40 -62 -7 -88 -31 -16
-49 -13 -79 13 -40 34 -40 34 4 59 24 13 46 25 47 26 2 1 18 -3 35 -10z"/>
<path d="M7411 6462 c-28 -46 -54 -702 -28 -702 9 0 17 32 17 70 0 43 10 70
25 70 17 1 15 7 -5 20 -25 17 -26 23 -2 38 17 11 31 70 37 160 8 103 18 142
38 142 18 0 26 20 23 56 -2 30 4 68 13 85 10 16 10 22 1 14 -10 -9 -37 3 -61
26 -28 26 -50 34 -58 21z"/>
<path d="M7203 6413 c-39 -42 -41 -50 -14 -72 17 -14 31 -39 31 -55 0 -15 8
-23 18 -17 11 6 23 -4 28 -24 5 -19 10 -7 12 28 1 34 8 90 15 125 15 77 -25
84 -90 15z"/>
<path d="M4391 6384 c-14 -35 -14 -35 47 -54 32 -10 43 -7 33 8 -8 13 0 22 19
22 48 0 19 34 -39 45 -32 6 -53 -1 -60 -21z"/>
<path d="M4595 6311 c-54 -22 -54 -23 -14 -57 44 -38 68 -45 48 -13 -7 11 -1
34 12 50 34 41 19 48 -46 20z"/>
<path d="M6922 6245 c-37 -37 -114 -91 -170 -119 -56 -28 -106 -58 -112 -66
-5 -8 -59 -40 -120 -71 -60 -31 -160 -89 -221 -128 -61 -39 -154 -93 -205
-121 -104 -55 -124 -91 -39 -73 30 7 123 22 205 33 165 23 440 99 440 121 0 7
-38 7 -85 -2 -47 -9 -95 -7 -107 3 -12 10 -28 12 -35 4 -7 -7 -13 2 -13 21 0
31 15 37 110 42 106 6 189 58 202 126 9 47 28 74 62 86 65 25 146 24 146 -2 0
-12 -10 -15 -22 -8 -15 10 -18 0 -8 -31 11 -33 8 -41 -11 -30 -18 12 -22 -1
-15 -47 5 -34 -1 -67 -13 -73 -11 -5 4 -6 34 0 53 10 75 -15 35 -40 -11 -7
-20 -33 -20 -57 0 -25 -9 -54 -20 -65 -37 -37 74 -19 116 18 87 79 83 289 -9
473 -41 83 -48 83 -125 6z"/>
<path d="M5609 6222 c-15 -14 149 -61 216 -62 77 0 69 36 -10 48 -131 20 -195
25 -206 14z"/>
<path d="M6026 6214 c4 -13 33 -21 64 -18 43 5 53 0 43 -25 -7 -19 -1 -31 18
-31 16 0 29 9 29 20 0 11 20 20 44 20 82 0 8 35 -100 47 -79 8 -105 5 -98 -13z"/>
<path d="M3690 6200 c-7 -11 0 -20 16 -20 27 0 144 -197 127 -213 -10 -10 -55
45 -83 100 -15 31 -40 43 -89 43 -115 0 -89 -40 83 -127 192 -97 260 -110 190
-37 -24 26 -80 97 -124 160 -82 116 -98 129 -120 94z"/>
<path d="M7984 6186 c-2 -24 -13 -49 -24 -56 -11 -7 -20 -30 -20 -52 0 -27
-11 -38 -35 -34 -23 4 -37 -9 -41 -37 -4 -31 -41 -58 -130 -98 -68 -30 -147
-78 -175 -107 -58 -60 -153 -108 -180 -91 -24 14 -24 -12 -1 -49 14 -22 30
-18 85 22 37 28 83 56 102 62 19 7 35 22 35 33 0 12 17 21 39 21 21 0 45 10
52 22 7 12 29 17 48 12 19 -5 57 3 83 18 80 44 97 36 84 -45 -8 -49 -5 -69 9
-60 13 8 17 -2 11 -27 -8 -28 -1 -40 22 -40 49 0 54 29 47 301 -4 137 -8 229
-11 205z"/>
<path d="M4993 6089 c-10 -25 -5 -30 18 -21 21 8 29 3 24 -13 -14 -40 134
-118 195 -103 80 20 53 71 -60 114 -158 59 -164 60 -177 23z"/>
<path d="M7524 5954 c24 -71 56 -116 56 -78 0 13 7 22 15 19 34 -11 229 89
211 107 -13 13 -39 12 -73 -1 -29 -11 -66 -15 -81 -9 -21 8 -26 0 -18 -30 6
-23 3 -42 -7 -41 -27 1 -88 52 -76 64 6 5 -3 15 -19 21 -24 10 -26 1 -8 -52z"/>
<path d="M900 5897 c-71 -23 -142 -51 -156 -62 -14 -12 -52 -20 -85 -19 -32 1
-59 -6 -59 -15 0 -9 -29 -15 -65 -13 -52 2 -64 -5 -59 -33 3 -21 -7 -35 -25
-35 -17 0 -31 8 -31 17 0 17 -92 3 -200 -29 -68 -20 -159 -108 -146 -141 6
-15 18 -22 28 -16 10 6 18 2 18 -10 0 -12 -22 -30 -48 -40 -55 -21 -87 -61
-49 -61 13 0 63 18 111 40 47 22 124 57 171 78 378 168 628 291 697 344 59 45
59 45 -102 -5z"/>
<path d="M5240 5918 c-25 -18 -25 -20 5 -11 22 8 35 1 35 -16 0 -16 18 -34 40
-41 22 -7 65 -33 95 -59 30 -25 78 -52 105 -61 l50 -15 -48 43 c-26 23 -61 42
-77 42 -19 0 -26 13 -20 37 17 67 -121 127 -185 81z"/>
<path d="M1160 5760 c-16 -10 -115 -55 -220 -101 -371 -163 -600 -277 -600
-298 0 -29 25 -26 71 8 22 17 55 30 74 30 19 1 35 10 35 21 0 11 16 20 36 20
20 0 45 8 55 17 10 9 73 38 139 64 66 25 125 53 130 61 12 17 274 138 298 138
10 0 23 14 29 30 13 33 -2 37 -47 10z"/>
<path d="M1265 5666 c-25 -5 -45 -21 -45 -36 0 -21 12 -22 60 -4 52 20 87 59
45 51 -8 -1 -35 -6 -60 -11z"/>
<path d="M1030 5543 c-88 -42 -191 -88 -230 -103 -89 -35 -197 -100 -167 -100
13 0 80 27 150 60 70 33 142 60 161 60 18 0 39 9 46 20 7 11 30 20 51 20 22 0
39 8 39 19 0 19 78 52 105 45 8 -2 15 10 15 26 0 38 16 42 -170 -47z"/>
<path d="M3374 5565 c-13 -21 8 -145 23 -145 52 2 69 38 44 98 -25 60 -50 77
-67 47z"/>
<path d="M7351 5477 c-6 -48 -16 -159 -21 -247 -5 -88 -14 -196 -20 -240 l-12
-80 41 50 c118 144 145 178 205 263 36 52 87 122 112 155 l47 62 -57 0 c-31 0
-85 -18 -121 -40 -36 -21 -64 -33 -63 -25 8 51 -3 74 -21 46 -25 -40 -44 -17
-50 58 -8 95 -27 94 -40 -2z"/>
<path d="M3512 5448 c-15 -40 1 -68 41 -68 20 0 27 11 19 32 -7 17 -12 40 -12
50 0 30 -35 20 -48 -14z"/>
<path d="M3366 5347 c-11 -29 69 -207 92 -207 35 0 116 109 107 142 -20 76
-175 127 -199 65z"/>
<path d="M6820 5288 c-60 -40 -146 -89 -190 -110 -44 -21 -107 -55 -140 -75
-33 -20 -94 -43 -135 -51 -76 -14 -104 -51 -40 -53 30 0 28 -6 -10 -38 -59
-49 -57 -61 10 -43 30 8 73 43 95 77 41 65 83 88 63 35 -14 -37 14 -39 51 -5
14 14 51 36 81 50 30 13 55 33 55 45 0 11 11 20 25 20 23 1 277 218 255 219
-5 0 -59 -32 -120 -71z"/>
<path d="M7607 5230 c-319 -454 -309 -429 -258 -630 4 -16 9 -34 9 -38 5 -23
91 79 148 174 195 329 241 433 157 357 -62 -57 -91 23 -31 89 17 19 28 51 25
71 -6 31 -14 27 -50 -23z"/>
<path d="M1063 5228 c-25 -18 -70 -40 -99 -49 -48 -14 -46 -16 21 -12 41 1 75
9 75 16 0 7 23 18 51 25 28 7 45 22 39 33 -17 27 -34 24 -87 -13z"/>
<path d="M5077 5095 c-27 -25 -73 -61 -103 -80 -64 -43 -68 -67 -14 -81 22 -6
35 -3 30 6 -11 17 42 80 67 80 34 0 81 -146 60 -185 -11 -21 -15 -44 -8 -51
27 -27 71 53 86 156 13 86 24 109 50 104 21 -3 32 8 30 33 -2 21 -14 34 -27
29 -13 -5 -30 1 -37 13 -22 35 -82 24 -134 -24z"/>
<path d="M950 5070 c-244 -64 -342 -95 -365 -114 -13 -11 -58 -16 -100 -11
-41 4 -88 2 -105 -6 -107 -51 -260 -106 -317 -114 -65 -10 -65 -10 -20 -34 38
-20 58 -19 105 4 112 56 279 105 356 105 43 0 111 17 152 37 186 93 726 136
811 66 53 -45 21 -58 -91 -39 -178 30 -656 -21 -656 -69 0 -11 27 -16 60 -11
33 5 60 2 60 -7 0 -10 9 -17 20 -17 11 0 73 -26 138 -58 65 -31 126 -50 135
-41 37 37 366 74 391 44 12 -15 14 -25 4 -22 -39 10 -368 -48 -368 -66 0 -12
70 -15 175 -8 138 9 166 7 131 -11 -44 -23 -76 -75 -57 -94 29 -29 155 140
143 192 -7 30 -18 84 -25 121 -23 122 -76 155 -257 160 -88 3 -173 8 -190 12
-16 4 -75 -5 -130 -19z m426 -144 c161 -14 153 -48 -18 -80 -204 -38 -607 13
-478 61 89 33 269 40 496 19z"/>
<path d="M0 5021 c0 -23 13 -41 29 -41 48 0 55 37 12 60 -35 18 -41 15 -41
-19z"/>
<path d="M5280 4964 c0 -49 1 -49 39 -15 23 21 53 30 73 23 27 -10 29 -7 10
15 -41 50 -122 35 -122 -23z"/>
<path d="M535 4805 c-61 -67 -40 -75 205 -81 263 -6 302 12 125 61 -211 58
-292 63 -330 20z m215 -25 c7 -12 -16 -20 -58 -20 -38 0 -75 9 -82 20 -7 12
16 20 58 20 38 0 75 -9 82 -20z"/>
<path d="M310 4761 l-80 -38 76 -1 c81 -2 154 26 154 59 0 30 -62 22 -150 -20z"/>
<path d="M560 4660 c-53 -11 -31 -15 90 -16 88 -1 178 7 200 16 50 22 -188 22
-290 0z"/>
<path d="M855 4548 c-4 -4 -105 -12 -226 -19 -383 -21 -609 -59 -624 -103 -5
-16 31 -13 109 8 74 19 159 26 236 19 75 -7 158 0 220 17 55 16 206 32 335 36
129 4 241 14 248 21 15 14 12 15 -167 22 -69 3 -128 3 -131 -1z"/>
<path d="M267 4420 c-58 -23 -147 -102 -147 -129 1 -15 5 -15 15 0 15 22 128
85 225 125 l50 21 -50 0 c-27 0 -70 -7 -93 -17z"/>
<path d="M6859 4372 c46 -120 181 -330 181 -281 0 28 -168 329 -183 329 -9 0
-8 -22 2 -48z"/>
<path d="M65 4370 c-36 -15 -65 -37 -65 -49 0 -11 30 -6 70 13 39 18 70 41 70
50 0 20 4 20 -75 -14z"/>
<path d="M869 4277 c-98 -56 -183 -109 -189 -117 -5 -8 -34 -27 -63 -42 -68
-35 -272 -230 -371 -354 -42 -52 -81 -98 -88 -104 -43 -36 -56 -96 -18 -86 22
6 40 21 40 34 0 12 18 34 40 47 22 14 40 34 40 45 0 97 563 547 777 622 63 22
86 58 37 58 -14 0 -106 -46 -205 -103z"/>
<path d="M215 4062 c-30 -32 -55 -69 -55 -81 0 -25 159 99 160 124 0 34 -54
11 -105 -43z"/>
<path d="M6721 3990 c0 -40 42 -110 66 -110 26 0 12 57 -26 103 -37 44 -40 45
-40 7z"/>
<path d="M838 3936 c-61 -33 -122 -78 -136 -100 -19 -31 -6 -27 62 19 47 33
105 66 129 73 44 14 107 73 74 70 -9 0 -67 -28 -129 -62z"/>
<path d="M1775 3897 c-107 -55 -195 -108 -195 -119 0 -19 3 -18 170 70 55 29
134 69 175 87 41 19 75 41 75 50 0 25 -22 16 -225 -88z"/>
<path d="M1700 3941 c-245 -95 -605 -305 -761 -444 -312 -279 -462 -458 -455
-544 5 -54 -43 -176 -63 -164 -27 17 -86 -109 -63 -137 12 -14 16 -32 8 -39
-7 -7 -4 -13 7 -13 31 0 67 45 67 83 0 20 23 76 50 125 28 49 50 102 50 118 0
82 222 354 463 566 100 88 396 270 602 368 193 93 245 124 200 118 -8 -1 -55
-18 -105 -37z"/>
<path d="M6823 3761 c11 -32 40 -80 64 -106 45 -49 47 -244 4 -565 -18 -133
14 -83 92 145 58 172 70 254 40 273 -10 6 -47 72 -82 146 -60 126 -89 165
-125 166 -8 0 -5 -26 7 -59z"/>
<path d="M6789 3605 c-15 -74 -21 -98 -56 -220 -23 -82 -24 -105 -4 -105 26 0
111 256 111 335 0 63 -37 56 -51 -10z"/>
<path d="M7950 3467 c-22 -16 -37 -39 -34 -51 3 -11 -4 -32 -16 -46 -15 -18
-16 -30 -1 -39 46 -29 -23 -251 -78 -251 -20 0 -64 -99 -52 -119 6 -9 -8 -32
-29 -51 -46 -42 -55 -150 -12 -150 147 0 319 250 243 351 -17 22 -30 48 -30
59 0 11 8 7 18 -9 28 -44 44 45 37 203 -6 129 -7 132 -46 103z"/>
<path d="M6788 3325 c-7 -30 -34 -95 -59 -145 -48 -94 -84 -489 -46 -512 33
-20 103 297 143 647 9 79 -20 87 -38 10z"/>
<path d="M7072 3355 c-38 -128 -108 -306 -161 -405 -76 -144 -109 -301 -110
-525 l0 -165 70 0 c82 0 88 14 19 40 -27 10 -50 28 -50 39 0 11 16 14 35 6 33
-12 33 -11 0 23 -80 80 -27 96 64 20 49 -42 57 -58 39 -80 -43 -53 50 -31 134
31 213 157 248 564 77 904 -67 132 -102 165 -117 112z m43 -279 c-11 -33 -70
-67 -88 -50 -8 8 3 28 24 44 47 35 75 38 64 6z m16 -313 c-6 -58 -25 -132 -41
-164 -17 -31 -30 -79 -30 -106 0 -121 -107 -106 -169 24 -32 67 -32 69 1 42
32 -26 34 -25 21 9 -12 32 -9 34 17 12 35 -29 37 -21 10 49 -12 33 -12 51 1
51 11 0 30 25 42 55 13 30 37 87 54 125 32 72 36 82 41 125 12 88 64 -129 53
-222z"/>
<path d="M166 2775 c-33 -72 -7 -230 34 -205 30 19 24 103 -10 137 -19 19 -22
32 -8 37 13 4 19 25 15 46 -6 32 -10 30 -31 -15z"/>
<path d="M6433 2707 c-7 -8 -13 -40 -13 -72 0 -73 -63 -319 -130 -512 -83
-235 -43 -229 52 7 37 94 132 590 113 590 -5 0 -14 -6 -22 -13z"/>
<path d="M6376 2690 c-7 -11 -57 -142 -112 -290 -55 -149 -132 -346 -170 -440
-72 -176 -77 -224 -16 -142 58 76 328 809 317 861 -3 18 -11 22 -19 11z"/>
<path d="M40 2512 c0 -13 16 -25 35 -26 20 -2 48 -6 64 -9 16 -4 32 7 36 24 5
23 -11 32 -64 33 -43 1 -71 -7 -71 -22z"/>
<path d="M7031 2262 c-6 -9 -60 -24 -121 -31 -113 -14 -172 -91 -69 -91 51 0
239 94 239 120 0 25 -34 26 -49 2z"/>
<path d="M6655 2155 c-5 -47 -32 -134 -59 -195 -28 -60 -61 -146 -75 -190 -38
-121 -102 -255 -148 -305 -27 -30 -31 -45 -13 -45 131 0 340 440 340 716 0
125 -31 138 -45 19z"/>
<path d="M6190 1809 c-44 -27 -93 -49 -109 -49 -16 0 -79 -35 -140 -77 -61
-43 -168 -108 -238 -145 -70 -37 -136 -84 -147 -105 -22 -42 -4 -140 24 -123
10 6 13 25 7 41 -8 21 -2 26 21 17 22 -8 32 -1 32 23 0 20 6 30 13 22 21 -21
87 49 87 92 0 45 62 41 76 -5 5 -16 3 -24 -4 -17 -8 7 -36 -9 -63 -36 -50 -50
-63 -87 -31 -87 10 0 35 -5 55 -12 28 -9 30 -7 10 8 -22 15 -20 24 11 46 20
16 73 71 116 123 43 52 91 95 107 95 20 0 22 -7 7 -26 -12 -14 -14 -37 -6 -52
12 -18 20 -11 30 26 7 29 22 52 34 52 11 0 15 -9 8 -20 -7 -11 -2 -20 10 -20
12 0 19 16 16 35 -3 19 4 33 17 31 23 -5 160 188 144 203 -4 4 -43 -14 -87
-40z"/>
<path d="M5713 1649 c-40 -39 -73 -74 -73 -78 0 -15 199 119 200 134 1 36 -60
9 -127 -56z"/>
<path d="M6348 1626 c-171 -206 -236 -277 -277 -306 -89 -61 -211 -167 -202
-175 13 -14 297 203 354 271 29 34 58 56 65 50 6 -7 12 -3 12 8 0 12 32 68 72
126 91 133 78 148 -24 26z"/>
<path d="M4 1500 c2 -115 6 -138 11 -70 4 54 16 105 27 111 12 7 7 35 -11 71
-30 56 -31 52 -27 -112z"/>
<path d="M5525 1235 c-74 -95 -106 -402 -56 -552 43 -130 77 -156 37 -28 -46
150 -22 368 63 570 18 40 -14 48 -44 10z"/>
<path d="M5827 1005 c-126 -119 -227 -272 -198 -301 45 -44 211 111 318 298
104 180 69 180 -120 3z m53 -61 c0 -8 -45 -60 -100 -114 -55 -54 -100 -90
-100 -79 0 40 81 149 110 149 17 0 36 14 43 30 12 31 47 42 47 14z"/>
<path d="M0 970 c0 -59 8 -71 55 -81 30 -7 71 -17 90 -22 51 -14 43 14 -26 98
-79 96 -119 98 -119 5z"/>
<path d="M6260 1012 c0 -37 76 -164 96 -160 14 3 16 0 5 -5 -23 -11 -28 -73
-9 -92 6 -6 41 8 77 32 36 24 83 53 104 66 33 19 19 31 -111 95 -152 74 -162
78 -162 64z"/>
<path d="M3359 791 c59 -62 110 -80 156 -53 19 12 24 21 10 21 -14 1 -23 11
-20 23 3 13 -13 26 -35 29 -22 4 -66 12 -99 18 l-58 11 46 -49z"/>
<path d="M6515 764 c-63 -41 -114 -85 -115 -98 0 -14 -14 -20 -30 -13 -17 6
-42 2 -57 -11 -15 -12 -33 -16 -40 -8 -7 7 -13 -1 -13 -19 0 -29 -36 -54 -97
-67 -27 -5 -183 -108 -183 -120 0 -4 20 0 45 10 128 47 155 45 155 -8 0 -28
-12 -50 -27 -50 -26 0 -32 -53 -9 -90 7 -11 22 -72 34 -136 28 -154 31 -158
139 -151 98 6 163 57 163 129 0 32 4 32 38 -5 21 -23 37 -59 35 -79 -2 -25 12
-40 42 -44 27 -4 45 4 45 20 1 21 4 21 18 -1 9 -14 38 -23 64 -19 45 6 42 13
-56 114 -89 91 -112 105 -156 94 -50 -13 -52 -10 -41 52 13 80 -83 210 -139
189 -20 -8 -27 -22 -17 -38 9 -14 16 -83 17 -155 0 -115 5 -130 38 -130 56 0
60 -39 7 -67 -91 -49 -163 1 -146 102 8 47 18 157 23 244 10 197 25 213 113
123 50 -53 86 -72 132 -72 43 0 63 -10 63 -30 0 -16 9 -30 20 -30 11 0 20 18
20 40 0 22 8 40 18 40 10 0 17 -42 15 -93 -3 -86 2 -95 67 -131 39 -22 81 -53
94 -70 41 -52 66 -8 66 115 0 119 39 173 42 59 4 -182 3 -216 -8 -234 -29 -46
-52 -126 -37 -126 16 0 163 284 163 314 0 7 -12 -3 -27 -24 -27 -36 -28 -36
-41 4 -9 29 1 58 32 92 25 28 62 78 82 111 l35 62 -120 61 c-67 33 -121 72
-122 85 0 19 -197 138 -223 134 -3 0 -58 -34 -121 -75z m295 -44 c7 -11 -3
-20 -21 -20 -27 0 -29 -6 -10 -28 28 -34 23 -38 -136 -92 -128 -45 -183 -43
-183 8 0 35 154 112 225 112 29 0 58 9 65 20 7 11 20 20 30 20 10 0 23 -9 30
-20z m10 -149 c0 -39 -145 -75 -176 -43 -27 27 -28 32 -4 23 17 -6 57 -3 90 7
73 22 90 25 90 13z m60 -101 c0 -17 -17 -30 -39 -30 -38 0 -70 -31 -71 -68 0
-10 -12 -23 -27 -28 -30 -10 -13 116 18 137 40 25 119 18 119 -11z"/>
<path d="M3544 667 c-31 -58 -52 -327 -22 -279 21 35 60 292 47 309 -3 3 -15
-10 -25 -30z"/>
<path d="M1 475 l0 -125 50 96 c62 123 62 154 -1 154 -48 0 -50 -5 -49 -125z"/>
<path d="M5940 550 c0 -51 27 -67 51 -29 7 12 36 30 64 41 28 10 46 24 39 30
-6 6 -31 0 -56 -13 -34 -18 -48 -19 -54 -2 -14 42 -44 24 -44 -27z"/>
<path d="M285 560 c-69 -5 -126 -17 -125 -25 0 -8 6 -14 13 -13 7 1 21 -12 31
-29 9 -17 29 -27 43 -21 14 5 47 1 74 -9 30 -11 71 -10 105 2 39 14 64 13 78
-1 11 -11 33 -16 48 -10 16 6 28 0 28 -12 0 -12 19 -22 43 -22 52 0 177 -128
177 -182 0 -22 -23 -84 -50 -139 l-51 -99 49 0 c28 0 56 10 63 21 7 12 26 17
41 11 18 -7 54 24 98 84 78 106 85 140 35 158 -91 32 -108 67 -65 136 l39 64
-99 46 c-104 49 -298 62 -575 40z m611 -349 c13 21 23 29 23 16 1 -12 -12 -33
-29 -47 -16 -14 -30 -38 -30 -54 0 -15 -9 -23 -20 -16 -11 7 -20 1 -20 -12 0
-14 -4 -20 -9 -15 -5 5 1 43 14 85 18 59 26 68 36 40 12 -34 14 -34 35 3z"/>
<path d="M1010 500 c8 -13 3 -45 -11 -72 -31 -58 -11 -85 39 -54 20 13 69 20
109 17 51 -4 73 3 73 22 0 15 -13 27 -30 27 -16 0 -30 8 -30 19 0 10 -20 24
-45 31 -25 7 -62 18 -83 24 -25 7 -32 3 -22 -14z"/>
<path d="M2980 513 c0 -23 85 -195 92 -187 11 10 -66 194 -81 194 -6 0 -11 -3
-11 -7z"/>
<path d="M7925 487 c-72 -35 -88 -69 -25 -53 22 6 40 20 40 30 0 11 14 15 30
9 18 -7 30 0 30 18 0 35 5 35 -75 -4z"/>
<path d="M1424 391 c-34 -44 -42 -46 -79 -20 -46 32 -57 24 -116 -91 -19 -38
-70 -117 -113 -175 l-77 -105 68 0 c59 0 72 9 90 60 12 33 30 60 42 60 12 0
21 9 21 20 0 11 -13 20 -30 20 -16 0 -30 -10 -30 -23 0 -13 -5 -18 -12 -11
-20 19 74 137 102 127 14 -6 34 -1 45 10 53 53 38 -26 -15 -83 -33 -35 -60
-74 -60 -86 0 -11 -15 -37 -33 -57 -31 -35 -31 -37 5 -37 24 0 54 27 76 70 54
98 110 146 131 112 9 -15 27 -21 39 -13 53 33 15 -51 -49 -107 -64 -56 -66
-62 -26 -62 24 0 65 20 91 43 l46 44 0 -44 c0 -37 11 -43 80 -43 94 0 99 15
28 82 -68 63 -103 133 -130 257 -24 114 -39 122 -94 52z"/>
<path d="M7945 401 c-29 -24 -41 -49 -32 -71 7 -20 1 -41 -15 -51 -23 -14 -21
-22 8 -44 38 -27 73 -169 37 -147 -19 12 -90 -67 -74 -83 4 -4 35 6 69 24 l62
32 0 190 c0 104 -2 189 -5 188 -3 0 -25 -17 -50 -38z"/>
<path d="M5893 407 c-19 -19 -14 -209 7 -257 12 -27 18 -30 19 -10 2 22 8 19
25 -10 13 -22 35 -52 50 -66 14 -15 26 -35 26 -45 0 -11 32 -19 70 -19 61 0
70 6 70 48 0 61 -120 272 -154 272 -14 0 -31 23 -38 50 -12 48 -46 65 -75 37z"/>
<path d="M7760 384 l-44 -35 57 2 c36 2 59 15 63 36 9 43 -20 42 -76 -3z"/>
<path d="M585 350 c-51 -22 -61 -70 -15 -70 34 0 40 -31 10 -50 -12 -7 -16
-20 -11 -29 6 -9 -3 -28 -19 -41 -17 -14 -30 -41 -30 -61 0 -20 -9 -42 -20
-49 -28 -17 -25 -50 5 -49 41 1 146 243 135 311 -9 52 -15 56 -55 38z"/>
<path d="M7680 190 c-21 -25 -17 -30 28 -30 61 0 62 -3 21 -81 -27 -54 -209
-95 -209 -48 0 35 47 91 68 82 14 -5 37 -2 51 7 19 11 14 19 -18 30 -26 8 -55
4 -67 -8 -12 -12 -43 -22 -69 -22 -38 0 -45 -8 -35 -40 11 -35 4 -38 -69 -32
-51 4 -89 -3 -103 -21 -19 -23 21 -27 246 -27 288 0 316 9 316 101 0 94 -106
153 -160 89z"/>
<path d="M4002 55 c-60 -31 -76 -47 -52 -52 37 -7 170 56 170 82 0 24 -23 18
-118 -30z"/>
</g>
</svg>
